<?xml version="1.0" standalone="no"?>
<!DOCTYPE svg PUBLIC "-//W3C//DTD SVG 20010904//EN"
 "http://www.w3.org/TR/2001/REC-SVG-20010904/DTD/svg10.dtd">
<svg version="1.0" xmlns="http://www.w3.org/2000/svg"
 width="100.000000pt" height="100.000000pt" viewBox="0 0 100.000000 100.000000"
 preserveAspectRatio="xMidYMid meet">
<metadata>
Created by potrace 1.11, written by Peter Selinger 2001-2013
</metadata>
<g transform="translate(0.000000,100.000000) scale(0.100000,-0.100000)"
fill="#000000" stroke="none">
<path d="M371 984 c-83 -22 -170 -73 -232 -137 -94 -96 -110 -154 -47 -176 78
-27 199 -6 371 66 62 25 120 46 130 45 9 0 15 3 12 9 -4 5 -2 9 3 9 10 0 26
-29 24 -42 -1 -5 3 -8 8 -8 14 0 13 13 -2 28 -15 15 -6 24 34 29 79 10 84 10
84 -11 -1 -10 5 -21 12 -23 6 -3 12 0 12 7 0 6 -5 8 -11 4 -7 -4 -10 -1 -7 7
6 17 33 23 56 13 9 -4 20 -6 25 -6 10 3 9 -16 -2 -22 -5 -3 -14 1 -21 9 -14
17 -30 20 -30 4 0 -5 5 -7 10 -4 6 3 10 2 10 -2 0 -18 40 -34 58 -23 14 9 12
10 -8 4 -22 -6 -23 -5 -11 9 12 15 16 15 42 1 16 -8 27 -18 25 -23 -3 -4 1 -8
9 -8 23 0 -7 48 -70 111 -122 122 -318 175 -484 130z"/>
<path d="M650 793 c0 -6 5 -15 10 -18 6 -4 8 -11 5 -16 -4 -5 -1 -9 4 -9 15 0
14 13 -4 36 -8 10 -15 14 -15 7z"/>
<path d="M686 785 c4 -8 11 -15 16 -15 6 0 5 6 -2 15 -7 8 -14 15 -16 15 -2 0
-1 -7 2 -15z"/>
<path d="M720 776 c0 -2 7 -7 16 -10 8 -3 12 -2 9 4 -6 10 -25 14 -25 6z"/>
<path d="M572 753 c7 -9 7 -13 0 -13 -6 0 -14 5 -17 10 -3 6 -11 10 -18 10 -6
0 -1 -7 11 -16 20 -14 24 -14 47 4 l25 20 -29 -2 c-23 0 -27 -4 -19 -13z"/>
<path d="M794 762 c3 -5 0 -13 -6 -15 -8 -3 -6 -6 5 -6 19 -1 23 14 5 25 -6 4
-8 3 -4 -4z"/>
<path d="M690 745 c-14 -8 -19 -14 -10 -14 8 0 24 6 34 14 25 19 9 19 -24 0z"/>
<path d="M738 742 c-16 -9 -28 -20 -28 -25 0 -4 11 0 25 9 16 10 25 12 25 5 0
-6 -7 -14 -15 -17 -8 -4 -15 -11 -15 -16 0 -7 5 -6 13 1 14 11 27 5 27 -11 0
-5 -5 -6 -12 -2 -7 5 -8 3 -3 -5 5 -9 10 -10 18 -2 7 7 7 15 0 23 -5 7 -8 23
-7 36 0 12 1 22 0 22 0 0 -13 -8 -28 -18z"/>
<path d="M865 734 c-13 -14 -29 -23 -34 -19 -20 12 -51 14 -51 3 0 -5 6 -8 14
-5 7 3 23 -1 33 -8 18 -13 21 -12 33 10 7 13 16 22 20 20 5 -3 10 2 14 10 8
22 -2 18 -29 -11z"/>
<path d="M610 741 c0 -6 5 -11 11 -11 5 0 8 -4 4 -9 -3 -6 5 -15 17 -21 21
-10 21 -10 6 3 -10 8 -15 16 -13 19 3 3 -1 11 -10 18 -10 8 -15 9 -15 1z"/>
<path d="M820 740 c0 -6 7 -10 15 -10 8 0 15 2 15 4 0 2 -7 6 -15 10 -8 3 -15
1 -15 -4z"/>
<path d="M650 730 c0 -6 7 -13 15 -16 8 -4 12 -11 8 -18 -3 -6 -3 -8 2 -4 4 4
17 3 29 -3 17 -8 16 -6 -4 10 -14 12 -31 26 -37 31 -9 8 -13 8 -13 0z"/>
<path d="M894 715 c-4 -8 -9 -13 -13 -12 -3 2 -14 -4 -23 -15 -27 -27 -5 -22
26 7 29 27 42 32 30 13 -4 -7 -3 -8 4 -4 7 4 12 2 12 -5 0 -7 2 -10 5 -7 3 3
3 13 -1 22 -8 20 -33 21 -40 1z"/>
<path d="M797 694 c7 -3 9 -13 6 -22 -6 -14 -5 -15 9 -2 16 15 7 31 -17 29 -5
0 -5 -3 2 -5z"/>
<path d="M139 333 c-1 -5 -1 -12 0 -17 1 -5 -7 -6 -17 -4 -15 4 -18 1 -16 -18
1 -13 -2 -24 -7 -24 -5 0 -9 -5 -9 -11 0 -8 5 -8 15 1 8 7 12 16 10 21 -3 4 4
13 15 19 11 6 18 16 14 22 -4 6 2 8 17 3 19 -5 21 -4 9 4 -18 13 -30 14 -31 4z"/>
<path d="M675 315 c-38 -12 -103 -36 -144 -53 -55 -24 -72 -28 -67 -16 3 8 2
12 -4 9 -6 -3 -10 -12 -10 -20 0 -18 -30 -28 -47 -14 -7 7 -16 9 -20 5 -3 -3
-1 -6 5 -6 7 0 12 -4 12 -8 0 -5 -7 -9 -15 -9 -8 0 -15 5 -15 11 0 5 -7 1 -15
-10 -8 -10 -15 -14 -15 -7 0 6 7 18 15 27 22 22 18 32 -5 11 -11 -10 -20 -24
-20 -32 0 -20 -44 -15 -58 7 -7 11 -20 20 -30 19 -13 0 -12 -3 6 -11 27 -13
29 -34 3 -34 -11 0 -17 5 -14 13 3 7 0 13 -6 13 -6 0 -11 -4 -11 -10 0 -19
-37 -10 -49 13 -6 12 -9 14 -7 5 4 -15 1 -16 -20 -7 -15 5 -36 16 -47 24 -37
26 -40 16 -6 -27 159 -208 424 -267 652 -145 107 57 218 187 202 237 -14 45
-150 52 -270 15z"/>
<path d="M250 325 c0 -5 12 -19 26 -30 25 -20 26 -22 9 -39 -10 -9 -15 -19
-13 -22 3 -2 13 5 23 16 14 16 15 23 6 34 -7 8 -10 20 -6 25 4 7 0 8 -10 4
-10 -3 -21 0 -26 8 -5 8 -9 10 -9 4z"/>
<path d="M173 308 c-13 -6 -23 -15 -23 -20 0 -10 36 7 45 22 7 12 7 12 -22 -2z"/>
<path d="M69 303 c0 -5 -2 -16 -4 -26 -2 -9 1 -15 6 -11 5 3 7 10 4 15 -4 5
-1 9 4 9 6 0 11 5 11 10 0 11 -20 14 -21 3z"/>
<path d="M210 301 c0 -5 -14 -14 -30 -21 -17 -7 -29 -15 -26 -17 6 -6 63 24
71 37 3 5 1 10 -4 10 -6 0 -11 -4 -11 -9z"/>
<path d="M310 305 c0 -5 5 -17 10 -25 5 -8 10 -10 10 -5 0 6 -5 17 -10 25 -5
8 -10 11 -10 5z"/>
<path d="M335 300 c3 -5 8 -10 11 -10 2 0 4 5 4 10 0 6 -5 10 -11 10 -5 0 -7
-4 -4 -10z"/>
<path d="M209 270 l-37 -26 20 -25 19 -24 -12 24 c-10 21 -8 26 12 42 25 19
48 21 62 4 5 -6 7 -5 5 3 -2 8 -7 13 -12 12 -5 -1 -12 3 -15 8 -3 5 -22 -3
-42 -18z"/>
<path d="M365 289 c-4 -5 1 -19 11 -30 19 -21 34 -25 34 -7 0 6 -3 9 -6 5 -9
-9 -36 21 -29 33 3 5 4 10 1 10 -3 0 -8 -5 -11 -11z"/>
<path d="M131 274 c0 -11 3 -14 6 -6 3 7 2 16 -1 19 -3 4 -6 -2 -5 -13z"/>
<path d="M418 268 c5 -5 16 -8 23 -6 8 3 3 7 -10 11 -17 4 -21 3 -13 -5z"/>
<path d="M326 254 c-11 -7 -17 -17 -13 -20 3 -4 14 1 23 10 21 22 15 28 -10
10z"/>
<path d="M230 250 c0 -5 7 -7 15 -4 8 4 15 8 15 10 0 2 -7 4 -15 4 -8 0 -15
-4 -15 -10z"/>
<path d="M110 239 c0 -5 5 -7 10 -4 6 3 10 8 10 11 0 2 -4 4 -10 4 -5 0 -10
-5 -10 -11z"/>
<path d="M211 234 c0 -11 3 -14 6 -6 3 7 2 16 -1 19 -3 4 -6 -2 -5 -13z"/>
<path d="M416 235 c-3 -8 -1 -15 4 -15 6 0 10 7 10 15 0 8 -2 15 -4 15 -2 0
-6 -7 -10 -15z"/>
<path d="M290 221 c0 -5 7 -12 16 -15 14 -5 15 -4 4 9 -14 17 -20 19 -20 6z"/>
</g>
</svg>
