<svg id="Layer_1" data-name="Layer 1" xmlns="http://www.w3.org/2000/svg" xmlns:xlink="http://www.w3.org/1999/xlink" viewBox="0 0 132 120"><defs><style>.cls-1{fill:#f8f8f8;}.cls-2{fill:#a39fc4;}.cls-3,.cls-4{opacity:0.35;}.cls-3{fill:url(#linear-gradient);}.cls-4{fill:url(#linear-gradient-2);}.cls-5{fill:#190a77;}.cls-6{fill:#d02003;}</style><linearGradient id="linear-gradient" x1="77" y1="11" x2="77" y2="114.51" gradientUnits="userSpaceOnUse"><stop offset="0" stop-color="#190a34" stop-opacity="0"/><stop offset="0.99" stop-color="#190a34"/></linearGradient><linearGradient id="linear-gradient-2" x1="57.87" y1="91.23" x2="92.47" y2="37.52" gradientUnits="userSpaceOnUse"><stop offset="0.42" stop-color="#190a34" stop-opacity="0"/><stop offset="1" stop-color="#190a34"/></linearGradient></defs><circle class="cls-1" cx="66" cy="60" r="60"/><path class="cls-2" d="M108.18,41.31A31.2,31.2,0,0,0,77,11h0A31.2,31.2,0,0,0,45.8,42.2v7.56A29.33,29.33,0,0,0,63.37,76.63h0A22.45,22.45,0,0,1,76.46,93.19l.64,3.51A15.68,15.68,0,0,0,94,109.5h0A15.67,15.67,0,0,0,108.2,93.9V41.31Z"/><path class="cls-3" d="M108.18,41.31A31.2,31.2,0,0,0,77,11h0A31.2,31.2,0,0,0,45.8,42.2v7.56A29.33,29.33,0,0,0,63.37,76.63h0A22.45,22.45,0,0,1,76.46,93.19l.64,3.51A15.68,15.68,0,0,0,94,109.5h0A15.67,15.67,0,0,0,108.2,93.9V41.31Z"/><path class="cls-4" d="M98.4,48.37v-3c0-12.84-9.58-23.26-21.4-23.26h0c-11.82,0-21.4,10.42-21.4,23.26v7.43h0C55.6,70.59,68.85,85,85.19,85H98.4V78.06a3.33,3.33,0,0,0-3.19-3.46h0c-5.78,0-10.47-5.1-10.47-11.38h0c0-6.29,4.69-11.38,10.47-11.38h0A3.34,3.34,0,0,0,98.4,48.37Z"/><path class="cls-5" d="M25.06,76.45a4.5,4.5,0,0,1-3.19-7.68,8.82,8.82,0,0,0,0-12.49,4.5,4.5,0,0,1,6.37-6.36,17.84,17.84,0,0,1,0,25.22A4.51,4.51,0,0,1,25.06,76.45Z"/><path class="cls-5" d="M34.05,86.31a4.5,4.5,0,0,1-3.18-7.68,21.58,21.58,0,0,0,0-30.49,4.5,4.5,0,1,1,6.37-6.36,30.59,30.59,0,0,1,0,43.21A4.49,4.49,0,0,1,34.05,86.31Z"/><path class="cls-5" d="M43.62,94.88a4.51,4.51,0,0,1-3.18-7.69,33.71,33.71,0,0,0,0-47.62,4.5,4.5,0,0,1,6.36-6.36,42.72,42.72,0,0,1,0,60.35A4.47,4.47,0,0,1,43.62,94.88Z"/><circle class="cls-6" cx="93" cy="96" r="5"/></svg>