<svg id="Layer_1" data-name="Layer 1" xmlns="http://www.w3.org/2000/svg" xmlns:xlink="http://www.w3.org/1999/xlink" width="132" height="120" viewBox="0 0 132 120"><defs><style>.cls-1{fill:none;}.cls-2{fill:#f8f8f8;}.cls-3{clip-path:url(#clip-path);}.cls-4{fill:#a39fc4;}.cls-5{fill:#180e6c;}.cls-6{opacity:0.35;fill:url(#linear-gradient);}.cls-7{fill:#d02003;}</style><clipPath id="clip-path"><path class="cls-1" d="M6,0H126a0,0,0,0,1,0,0V60a60,60,0,0,1-60,60h0A60,60,0,0,1,6,60V0A0,0,0,0,1,6,0Z"/></clipPath><linearGradient id="linear-gradient" x1="66" y1="75.33" x2="66" y2="160.34" gradientUnits="userSpaceOnUse"><stop offset="0" stop-color="#190a34" stop-opacity="0"/><stop offset="1" stop-color="#190a34"/></linearGradient></defs><title>svg-source</title><circle class="cls-2" cx="66" cy="60" r="60"/><g class="cls-3"><path class="cls-4" d="M104,8H28a4,4,0,0,0-4,4V120h84V12A4,4,0,0,0,104,8Z"/><rect class="cls-5" x="32" y="35" width="15" height="2" rx="1" ry="1"/><rect class="cls-5" x="54" y="20" width="15" height="3" rx="1.5" ry="1.5"/><rect class="cls-5" x="71" y="20" width="7" height="3" rx="1.5" ry="1.5"/><rect class="cls-5" x="49" y="35" width="41.5" height="2" rx="1" ry="1"/><rect class="cls-5" x="92.5" y="35" width="7.5" height="2" rx="1" ry="1"/><rect class="cls-5" x="32" y="39" width="27.5" height="2" rx="1" ry="1"/><rect class="cls-5" x="61.5" y="39" width="23" height="2" rx="1" ry="1"/><rect class="cls-5" x="86.5" y="39" width="13.5" height="2" rx="1" ry="1"/><rect class="cls-5" x="32" y="43" width="9" height="2" rx="1" ry="1"/><rect class="cls-5" x="43" y="43" width="31.5" height="2" rx="1" ry="1"/><rect class="cls-5" x="76.5" y="43" width="23.5" height="2" rx="1" ry="1"/><rect class="cls-5" x="32" y="47" width="25.5" height="2" rx="1" ry="1"/><rect class="cls-5" x="59.5" y="47" width="31.5" height="2" rx="1" ry="1"/><rect class="cls-5" x="93" y="47" width="7" height="2" rx="1" ry="1"/><rect class="cls-5" x="32" y="51" width="19" height="2" rx="1" ry="1"/><rect class="cls-5" x="53" y="51" width="31.5" height="2" rx="1" ry="1"/><rect class="cls-5" x="86.5" y="51" width="13.5" height="2" rx="1" ry="1"/><rect class="cls-5" x="32" y="55" width="29.5" height="2" rx="1" ry="1"/><rect class="cls-5" x="63.5" y="55" width="17" height="2" rx="1" ry="1"/><rect class="cls-5" x="82.5" y="55" width="17.5" height="2" rx="1" ry="1"/><rect class="cls-5" x="32" y="59" width="9" height="2" rx="1" ry="1"/><rect class="cls-5" x="43" y="59" width="31.5" height="2" rx="1" ry="1"/><rect class="cls-5" x="32.25" y="95" width="15" height="2" rx="1" ry="1"/><rect class="cls-5" x="49.25" y="95" width="41.5" height="2" rx="1" ry="1"/><rect class="cls-5" x="92.75" y="95" width="7.5" height="2" rx="1" ry="1"/><rect class="cls-5" x="32.25" y="99" width="27.5" height="2" rx="1" ry="1"/><rect class="cls-5" x="61.75" y="99" width="23" height="2" rx="1" ry="1"/><rect class="cls-5" x="86.75" y="99" width="13.5" height="2" rx="1" ry="1"/><rect class="cls-5" x="32.25" y="103" width="9" height="2" rx="1" ry="1"/><rect class="cls-5" x="43.25" y="103" width="31.5" height="2" rx="1" ry="1"/><rect class="cls-5" x="76.75" y="103" width="23.5" height="2" rx="1" ry="1"/><rect class="cls-5" x="32.25" y="107" width="25.5" height="2" rx="1" ry="1"/><rect class="cls-5" x="41.5" y="89" width="41.5" height="2" rx="1" ry="1" transform="translate(124.5 180) rotate(180)"/><rect class="cls-5" x="32" y="89" width="7.5" height="2" rx="1" ry="1" transform="translate(71.5 180) rotate(180)"/><rect class="cls-5" x="72.5" y="85" width="27.5" height="2" rx="1" ry="1" transform="translate(172.5 172) rotate(180)"/><rect class="cls-5" x="47.5" y="85" width="23" height="2" rx="1" ry="1" transform="translate(118 172) rotate(180)"/><rect class="cls-5" x="32" y="85" width="13.5" height="2" rx="1" ry="1" transform="translate(77.5 172) rotate(180)"/><rect class="cls-5" x="91" y="81" width="9" height="2" rx="1" ry="1" transform="translate(191 164) rotate(-180)"/><rect class="cls-5" x="57.5" y="81" width="31.5" height="2" rx="1" ry="1" transform="translate(146.5 164) rotate(180)"/><rect class="cls-5" x="32" y="81" width="23.5" height="2" rx="1" ry="1" transform="translate(87.5 164) rotate(180)"/><rect class="cls-5" x="74.5" y="77" width="25.5" height="2" rx="1" ry="1" transform="translate(174.5 156) rotate(-180)"/><rect class="cls-5" x="41" y="77" width="31.5" height="2" rx="1" ry="1" transform="translate(113.5 156) rotate(180)"/><rect class="cls-5" x="32" y="77" width="7" height="2" rx="1" ry="1" transform="translate(71 156) rotate(-180)"/><rect class="cls-5" x="81" y="73" width="19" height="2" rx="1" ry="1" transform="translate(181 148) rotate(-180)"/><rect class="cls-5" x="47.5" y="73" width="31.5" height="2" rx="1" ry="1" transform="translate(126.5 148) rotate(180)"/><rect class="cls-5" x="32" y="73" width="13.5" height="2" rx="1" ry="1" transform="translate(77.5 148) rotate(-180)"/><rect class="cls-5" x="70.5" y="69" width="29.5" height="2" rx="1" ry="1" transform="translate(170.5 140) rotate(-180)"/><rect class="cls-5" x="51.5" y="69" width="17" height="2" rx="1" ry="1" transform="translate(120 140) rotate(-180)"/><rect class="cls-5" x="32" y="69" width="17.5" height="2" rx="1" ry="1" transform="translate(81.5 140) rotate(-180)"/><rect class="cls-5" x="91" y="65" width="9" height="2" rx="1" ry="1" transform="translate(191 132) rotate(-180)"/><rect class="cls-5" x="57.5" y="65" width="31.5" height="2" rx="1" ry="1" transform="translate(146.5 132) rotate(-180)"/><rect class="cls-5" x="32" y="65" width="23.5" height="2" rx="1" ry="1" transform="translate(87.5 132) rotate(180)"/><path class="cls-6" d="M104,8H28a4,4,0,0,0-4,4V120h84V12A4,4,0,0,0,104,8Z"/></g><rect class="cls-7" x="48" y="37" width="44" height="1"/><rect class="cls-7" x="46" y="75" width="34" height="1"/><rect class="cls-7" x="31" y="61" width="11" height="1"/><path class="cls-7" d="M70.55,51.79a4.12,4.12,0,0,1,4.13,2.59c0.67,2.1-.92,4.49-3.55,5.33a6.1,6.1,0,0,1-1.85.29,4.12,4.12,0,0,1-4.13-2.59c-0.67-2.1.92-4.49,3.55-5.33a6.1,6.1,0,0,1,1.85-.29m0-1h0a7.08,7.08,0,0,0-2.15.34,6.66,6.66,0,0,0-3.54,2.59,4.6,4.6,0,0,0-.66,4A5.07,5.07,0,0,0,69.28,61a7.08,7.08,0,0,0,2.15-.34c3.15-1,5-4,4.2-6.59a5.07,5.07,0,0,0-5.08-3.28h0Z"/><path class="cls-7" d="M54.51,81c3.65,0,6.49,1.19,6.68,3,0.23,2.08-3.26,4.17-7.8,4.67a17.78,17.78,0,0,1-2,.11c-3.65,0-6.49-1.19-6.68-3-0.23-2.08,3.26-4.17,7.8-4.67a17.78,17.78,0,0,1,2-.11m0-1h0a18.83,18.83,0,0,0-2.07.12c-5.25.58-9,3.07-8.69,5.78,0.26,2.3,3.34,3.85,7.68,3.85a18.81,18.81,0,0,0,2.07-.12c5.25-.58,9-3.07,8.69-5.78C61.93,81.58,58.84,80,54.51,80h0Z"/></svg>