<?xml version="1.0" encoding="utf-8"?>
<!-- Generator: Adobe Illustrator 19.2.1, SVG Export Plug-In . SVG Version: 6.00 Build 0)  -->
<svg version="1.1" id="Layer_1" xmlns="http://www.w3.org/2000/svg" xmlns:xlink="http://www.w3.org/1999/xlink" x="0px" y="0px"
	 width="132px" height="120px" viewBox="0 0 132 120" style="enable-background:new 0 0 132 120;" xml:space="preserve">
<style type="text/css">
	.st0{fill:#F8F8F8;}
	.st1{clip-path:url(#SVGID_2_);}
	.st2{opacity:0.35;fill:url(#SVGID_3_);}
	.st3{fill:#A39FC4;}
	.st4{fill:#D02003;}
	.st5{opacity:0.35;fill:url(#SVGID_4_);}
	.st6{fill:#180E6C;}
	.st7{opacity:0.35;fill:url(#SVGID_5_);}
	.st8{opacity:0.35;fill:url(#SVGID_6_);}
</style>
<title>svg-source</title>
<g>
	<circle class="st0" cx="66" cy="60" r="60"/>
	<g>
		<defs>
			<path id="SVGID_1_" d="M66,120L66,120C32.9,120,6,93.1,6,60v0C6,26.9,32.9,0,66,0h0c33.1,0,60,26.9,60,60v0
				C126,93.1,99.1,120,66,120z"/>
		</defs>
		<clipPath id="SVGID_2_">
			<use xlink:href="#SVGID_1_"  style="overflow:visible;"/>
		</clipPath>
		<g class="st1">
			<g>
				<linearGradient id="SVGID_3_" gradientUnits="userSpaceOnUse" x1="42.5044" y1="15.9167" x2="42.5044" y2="128.9206">
					<stop  offset="0" style="stop-color:#190A34;stop-opacity:0"/>
					<stop  offset="1" style="stop-color:#190A34"/>
				</linearGradient>
				<path class="st2" d="M-5,29.6h94c0.6,0,1,0.5,1,1v58c0,2.2-1.8,4-4,4H-5V29.6z"/>
			</g>
			<path class="st3" d="M-5,27.7h94c0.6,0,1,0.5,1,1v58c0,2.2-1.8,4-4,4H-5V27.7z"/>
			<path class="st4" d="M83.5,31.7L83.5,31.7c0.8,0,1.5,0.7,1.5,1.5v0c0,0.8-0.7,1.5-1.5,1.5l0,0c-0.8,0-1.5-0.7-1.5-1.5v0
				C82,32.3,82.7,31.7,83.5,31.7z"/>
			<linearGradient id="SVGID_4_" gradientUnits="userSpaceOnUse" x1="42.4956" y1="14" x2="42.4956" y2="127.0039">
				<stop  offset="0" style="stop-color:#190A34;stop-opacity:0"/>
				<stop  offset="1" style="stop-color:#190A34"/>
			</linearGradient>
			<path class="st5" d="M-5,27.7h94c0.6,0,1,0.5,1,1v58c0,2.2-1.8,4-4,4H-5V27.7z"/>
			<g>
				<path class="st6" d="M84,86.7h-4c-1.1,0-2-0.9-2-2v0c0-1.1,0.9-2,2-2h4c1.1,0,2,0.9,2,2v0C86,85.8,85.1,86.7,84,86.7z"/>
				<path class="st6" d="M64,86.7h-4c-1.1,0-2-0.9-2-2v0c0-1.1,0.9-2,2-2h4c1.1,0,2,0.9,2,2v0C66,85.8,65.1,86.7,64,86.7z"/>
				<path class="st6" d="M74,86.7h-4c-1.1,0-2-0.9-2-2v-4c0-1.1,0.9-2,2-2h4c1.1,0,2,0.9,2,2v4C76,85.8,75.1,86.7,74,86.7z"/>
				<path class="st6" d="M84,76.7H68c-1.1,0-2-0.9-2-2v-4c0-1.1,0.9-2,2-2h16c1.1,0,2,0.9,2,2v4C86,75.8,85.1,76.7,84,76.7z"/>
				<path class="st6" d="M84,66.7h-1c-1.1,0-2-0.9-2-2v-10c0-1.1,0.9-2,2-2h1c1.1,0,2,0.9,2,2v10C86,65.8,85.1,66.7,84,66.7z"/>
				<path class="st6" d="M84,56.7h-4c-1.1,0-2-0.9-2-2v-4c0-1.1,0.9-2,2-2h4c1.1,0,2,0.9,2,2v4C86,55.8,85.1,56.7,84,56.7z"/>
				<path class="st6" d="M84,46.7h-9c-1.1,0-2-0.9-2-2v-4c0-1.1,0.9-2,2-2h9c1.1,0,2,0.9,2,2v4C86,45.8,85.1,46.7,84,46.7z"/>
				<path class="st6" d="M54,86.7h-3c-1.1,0-2-0.9-2-2v-4c0-1.1,0.9-2,2-2h3c1.1,0,2,0.9,2,2v4C56,85.8,55.1,86.7,54,86.7z"/>
				<path class="st6" d="M45,86.7h-7c-1.1,0-2-0.9-2-2v-4c0-1.1,0.9-2,2-2h7c1.1,0,2,0.9,2,2v4C47,85.8,46.1,86.7,45,86.7z"/>
				<path class="st4" d="M32,86.7H-7c-1.1,0-2-0.9-2-2v-4c0-1.1,0.9-2,2-2h39c1.1,0,2,0.9,2,2v4C34,85.8,33.1,86.7,32,86.7z"/>
				<path class="st6" d="M62,76.7h-4c-1.1,0-2-0.9-2-2v-4c0-1.1,0.9-2,2-2h4c1.1,0,2,0.9,2,2v4C64,75.8,63.1,76.7,62,76.7z"/>
				<path class="st6" d="M52,76.7h-4c-1.1,0-2-0.9-2-2v-4c0-1.1,0.9-2,2-2h4c1.1,0,2,0.9,2,2v4C54,75.8,53.1,76.7,52,76.7z"/>
				<path class="st6" d="M42,76.7h-4c-1.1,0-2-0.9-2-2v-4c0-1.1,0.9-2,2-2h4c1.1,0,2,0.9,2,2v4C44,75.8,43.1,76.7,42,76.7z"/>
				<path class="st6" d="M77,66.7h-4c-1.1,0-2-0.9-2-2v-4c0-1.1,0.9-2,2-2h4c1.1,0,2,0.9,2,2v4C79,65.8,78.1,66.7,77,66.7z"/>
				<path class="st6" d="M74,56.7h-4c-1.1,0-2-0.9-2-2v-4c0-1.1,0.9-2,2-2h4c1.1,0,2,0.9,2,2v4C76,55.8,75.1,56.7,74,56.7z"/>
				<path class="st6" d="M69,46.7h-4c-1.1,0-2-0.9-2-2v-4c0-1.1,0.9-2,2-2h4c1.1,0,2,0.9,2,2v4C71,45.8,70.1,46.7,69,46.7z"/>
				<path class="st6" d="M67,66.7h-4c-1.1,0-2-0.9-2-2v-4c0-1.1,0.9-2,2-2h4c1.1,0,2,0.9,2,2v4C69,65.8,68.1,66.7,67,66.7z"/>
				<path class="st6" d="M57,66.7h-4c-1.1,0-2-0.9-2-2v-4c0-1.1,0.9-2,2-2h4c1.1,0,2,0.9,2,2v4C59,65.8,58.1,66.7,57,66.7z"/>
				<path class="st6" d="M47,66.7h-4c-1.1,0-2-0.9-2-2v-4c0-1.1,0.9-2,2-2h4c1.1,0,2,0.9,2,2v4C49,65.8,48.1,66.7,47,66.7z"/>
				<path class="st6" d="M64,56.7h-4c-1.1,0-2-0.9-2-2v-4c0-1.1,0.9-2,2-2h4c1.1,0,2,0.9,2,2v4C66,55.8,65.1,56.7,64,56.7z"/>
				<path class="st6" d="M54,56.7h-4c-1.1,0-2-0.9-2-2v-4c0-1.1,0.9-2,2-2h4c1.1,0,2,0.9,2,2v4C56,55.8,55.1,56.7,54,56.7z"/>
				<path class="st6" d="M59,46.7h-4c-1.1,0-2-0.9-2-2v-4c0-1.1,0.9-2,2-2h4c1.1,0,2,0.9,2,2v4C61,45.8,60.1,46.7,59,46.7z"/>
				<path class="st6" d="M49,46.7h-4c-1.1,0-2-0.9-2-2v-4c0-1.1,0.9-2,2-2h4c1.1,0,2,0.9,2,2v4C51,45.8,50.1,46.7,49,46.7z"/>
				<path class="st6" d="M37,66.7h-4c-1.1,0-2-0.9-2-2v-4c0-1.1,0.9-2,2-2h4c1.1,0,2,0.9,2,2v4C39,65.8,38.1,66.7,37,66.7z"/>
				<path class="st6" d="M44,56.7h-4c-1.1,0-2-0.9-2-2v-4c0-1.1,0.9-2,2-2h4c1.1,0,2,0.9,2,2v4C46,55.8,45.1,56.7,44,56.7z"/>
				<path class="st6" d="M39,46.7h-4c-1.1,0-2-0.9-2-2v-4c0-1.1,0.9-2,2-2h4c1.1,0,2,0.9,2,2v4C41,45.8,40.1,46.7,39,46.7z"/>
				<path class="st6" d="M32,76.7h-4c-1.1,0-2-0.9-2-2v-4c0-1.1,0.9-2,2-2h4c1.1,0,2,0.9,2,2v4C34,75.8,33.1,76.7,32,76.7z"/>
				<path class="st6" d="M27,66.7h-4c-1.1,0-2-0.9-2-2v-4c0-1.1,0.9-2,2-2h4c1.1,0,2,0.9,2,2v4C29,65.8,28.1,66.7,27,66.7z"/>
				<path class="st6" d="M34,56.7h-4c-1.1,0-2-0.9-2-2v-4c0-1.1,0.9-2,2-2h4c1.1,0,2,0.9,2,2v4C36,55.8,35.1,56.7,34,56.7z"/>
				<path class="st6" d="M29,46.7h-4c-1.1,0-2-0.9-2-2v-4c0-1.1,0.9-2,2-2h4c1.1,0,2,0.9,2,2v4C31,45.8,30.1,46.7,29,46.7z"/>
				<path class="st6" d="M22,76.7h-4c-1.1,0-2-0.9-2-2v-4c0-1.1,0.9-2,2-2h4c1.1,0,2,0.9,2,2v4C24,75.8,23.1,76.7,22,76.7z"/>
				<path class="st6" d="M24,56.7h-4c-1.1,0-2-0.9-2-2v-4c0-1.1,0.9-2,2-2h4c1.1,0,2,0.9,2,2v4C26,55.8,25.1,56.7,24,56.7z"/>
				<path class="st6" d="M17,66.7h-4c-1.1,0-2-0.9-2-2v-4c0-1.1,0.9-2,2-2h4c1.1,0,2,0.9,2,2v4C19,65.8,18.1,66.7,17,66.7z"/>
				<path class="st6" d="M19,46.7h-4c-1.1,0-2-0.9-2-2v-4c0-1.1,0.9-2,2-2h4c1.1,0,2,0.9,2,2v4C21,45.8,20.1,46.7,19,46.7z"/>
				<path class="st6" d="M12,76.7H8c-1.1,0-2-0.9-2-2v-4c0-1.1,0.9-2,2-2h4c1.1,0,2,0.9,2,2v4C14,75.8,13.1,76.7,12,76.7z"/>
				<path class="st6" d="M7,66.7H3c-1.1,0-2-0.9-2-2v-4c0-1.1,0.9-2,2-2h4c1.1,0,2,0.9,2,2v4C9,65.8,8.1,66.7,7,66.7z"/>
				<path class="st6" d="M14,56.7h-4c-1.1,0-2-0.9-2-2v-4c0-1.1,0.9-2,2-2h4c1.1,0,2,0.9,2,2v4C16,55.8,15.1,56.7,14,56.7z"/>
				<path class="st6" d="M9,46.7H5c-1.1,0-2-0.9-2-2v-4c0-1.1,0.9-2,2-2h4c1.1,0,2,0.9,2,2v4C11,45.8,10.1,46.7,9,46.7z"/>
				<path class="st6" d="M-1,46.7h-4c-1.1,0-2-0.9-2-2v-4c0-1.1,0.9-2,2-2h4c1.1,0,2,0.9,2,2v4C1,45.8,0.1,46.7-1,46.7z"/>
				<path class="st6" d="M2,76.7h-4c-1.1,0-2-0.9-2-2v-4c0-1.1,0.9-2,2-2h4c1.1,0,2,0.9,2,2v4C4,75.8,3.1,76.7,2,76.7z"/>
				<path class="st6" d="M4,56.7H0c-1.1,0-2-0.9-2-2v-4c0-1.1,0.9-2,2-2h4c1.1,0,2,0.9,2,2v4C6,55.8,5.1,56.7,4,56.7z"/>
			</g>
		</g>
	</g>
	<g>
		<linearGradient id="SVGID_5_" gradientUnits="userSpaceOnUse" x1="117" y1="38.9167" x2="117" y2="89.0066">
			<stop  offset="0" style="stop-color:#190A34;stop-opacity:0"/>
			<stop  offset="1" style="stop-color:#190A34"/>
		</linearGradient>
		<path class="st7" d="M117,86.7L117,86.7c-8.3,0-15-6.7-15-15v-21c0-8.3,6.7-15,15-15h0c8.3,0,15,6.7,15,15v21
			C132,80,125.3,86.7,117,86.7z"/>
		<path class="st3" d="M117,84.7L117,84.7c-8.3,0-15-6.7-15-15v-21c0-8.3,6.7-15,15-15h0c8.3,0,15,6.7,15,15v21
			C132,78,125.3,84.7,117,84.7z"/>
		<linearGradient id="SVGID_6_" gradientUnits="userSpaceOnUse" x1="117" y1="10.5" x2="117" y2="118.1997">
			<stop  offset="0" style="stop-color:#190A34;stop-opacity:0"/>
			<stop  offset="1" style="stop-color:#190A34"/>
		</linearGradient>
		<path class="st8" d="M117,84.7L117,84.7c-8.3,0-15-6.7-15-15v-21c0-8.3,6.7-15,15-15h0c8.3,0,15,6.7,15,15v21
			C132,78,125.3,84.7,117,84.7z"/>
		<path class="st6" d="M117,51.7L117,51.7c-1.1,0-2-0.9-2-2v-9c0-1.1,0.9-2,2-2l0,0c1.1,0,2,0.9,2,2v9C119,50.8,118.1,51.7,117,51.7
			z"/>
	</g>
</g>
</svg>
