<svg xmlns="http://www.w3.org/2000/svg" xmlns:xlink="http://www.w3.org/1999/xlink" viewBox="0 0 132 120"><defs><style>.cls-1{fill:none;}.cls-2{clip-path:url(#clip-path);}.cls-3{fill:#180e6c;}.cls-4{fill:#f8f8f8;}.cls-5{fill:#a39fc4;}.cls-6{opacity:0.35;fill:url(#linear-gradient);}.cls-7{opacity:0.45;fill:url(#linear-gradient-2);}.cls-8{fill:#190a77;}.cls-9{fill:#d02003;}</style><clipPath id="clip-path"><path class="cls-1" d="M71.25,142.08h0a60,60,0,0,1,60,60v74.83a0,0,0,0,1,0,0h-120a0,0,0,0,1,0,0V202.08A60,60,0,0,1,71.25,142.08Z" transform="translate(-127.27 111.74) rotate(-45)"/></clipPath><linearGradient id="linear-gradient" x1="-575.66" y1="24.05" x2="-575.66" y2="114.71" gradientTransform="matrix(-1, 0, 0, 1, -507.93, 0)" gradientUnits="userSpaceOnUse"><stop offset="0" stop-color="#190a34" stop-opacity="0"/><stop offset="0.99" stop-color="#190a34"/></linearGradient><linearGradient id="linear-gradient-2" x1="-592.42" y1="94.31" x2="-562.12" y2="47.28" gradientTransform="matrix(-1, 0, 0, 1, -507.93, 0)" gradientUnits="userSpaceOnUse"><stop offset="0.42" stop-color="#190a34" stop-opacity="0"/><stop offset="1" stop-color="#190a34"/></linearGradient></defs><g id="Layer_1" data-name="Layer 1"><g class="cls-2"><path class="cls-3" d="M12.7,119.2-19,150.94,39.9,204.6a3.11,3.11,0,0,0,4.3-.1l22.06-22.05a3.12,3.12,0,0,0,.1-4.3Z"/></g><circle class="cls-4" cx="66" cy="60" r="60"/><path class="cls-5" d="M40.43,50.6a27.32,27.32,0,0,1,27.3-26.55h0A27.32,27.32,0,0,1,95.06,51.38V58A25.68,25.68,0,0,1,79.67,81.53h0A19.67,19.67,0,0,0,68.2,96l-.56,3.08a13.71,13.71,0,0,1-14.78,11.21h0A13.72,13.72,0,0,1,40.41,96.65V50.6Z"/><path class="cls-6" d="M40.43,50.6a27.32,27.32,0,0,1,27.3-26.55h0A27.32,27.32,0,0,1,95.06,51.38V58A25.68,25.68,0,0,1,79.67,81.53h0A19.67,19.67,0,0,0,68.2,96l-.56,3.08a13.71,13.71,0,0,1-14.78,11.21h0A13.72,13.72,0,0,1,40.41,96.65V50.6Z"/><path class="cls-7" d="M49,56.78v-2.6c0-11.25,8.39-20.37,18.73-20.37h0c10.35,0,18.74,9.12,18.74,20.37v6.5h0c0,15.56-11.6,28.17-25.91,28.17H49V82.79a2.92,2.92,0,0,1,2.79-3h0c5.06,0,9.17-4.46,9.17-10h0c0-5.5-4.11-10-9.17-10h0A2.91,2.91,0,0,1,49,56.78Z"/><path class="cls-8" d="M80,16.47h0a3.49,3.49,0,0,0,1.85,4.23,33.42,33.42,0,0,1,18,21.13,3.5,3.5,0,0,0,4.28,2.45h0a3.51,3.51,0,0,0,2.45-4.36A40.47,40.47,0,0,0,84.84,14.35,3.5,3.5,0,0,0,80,16.47Z"/><path class="cls-8" d="M84.41,2.79h0a3.46,3.46,0,0,0,1.9,4.26A46.64,46.64,0,0,1,113,38.25a3.48,3.48,0,0,0,4.29,2.48h0a3.48,3.48,0,0,0,2.49-4.2A53.66,53.66,0,0,0,89.16.66,3.5,3.5,0,0,0,84.41,2.79Z"/><path class="cls-8" d="M28.91,92.34a4.39,4.39,0,0,1,.1-6.2h0a4.39,4.39,0,0,1,6.19.1h0a4.38,4.38,0,0,1-.1,6.19h0a4.34,4.34,0,0,1-3,1.24h0A4.35,4.35,0,0,1,28.91,92.34Z"/><path class="cls-8" d="M38.77,82.77a4.38,4.38,0,0,1,.1-6.19h0a4.37,4.37,0,0,1,6.19.1h0A4.39,4.39,0,0,1,45,82.87h0a4.4,4.4,0,0,1-3,1.23h0A4.35,4.35,0,0,1,38.77,82.77Z"/><path class="cls-9" d="M48.64,73.2A4.38,4.38,0,0,1,48.73,67h0a4.39,4.39,0,0,1,6.19.09h0a4.38,4.38,0,0,1-.09,6.2h0a4.38,4.38,0,0,1-3,1.23h0A4.37,4.37,0,0,1,48.64,73.2Z"/><path class="cls-8" d="M58.5,63.64a4.4,4.4,0,0,1,.09-6.2h0a4.39,4.39,0,0,1,6.2.1h0a4.38,4.38,0,0,1-.1,6.19h0a4.33,4.33,0,0,1-3,1.24h0A4.39,4.39,0,0,1,58.5,63.64Z"/><path class="cls-8" d="M68.37,54.06a4.37,4.37,0,0,1,.09-6.19h0a4.38,4.38,0,0,1,6.19.1h0a4.38,4.38,0,0,1-.09,6.19h0a4.39,4.39,0,0,1-3.06,1.23h0A4.29,4.29,0,0,1,68.37,54.06Z"/><path class="cls-8" d="M19.15,95.71a4.38,4.38,0,0,0-.69.88A59.66,59.66,0,0,0,24,102.83a4.37,4.37,0,1,0-4.85-7.12Z"/></g></svg>