<?xml version="1.0" encoding="utf-8"?>
<!-- Generator: Adobe Illustrator 19.2.1, SVG Export Plug-In . SVG Version: 6.00 Build 0)  -->
<svg version="1.1" id="Layer_1" xmlns="http://www.w3.org/2000/svg" xmlns:xlink="http://www.w3.org/1999/xlink" x="0px" y="0px"
	 viewBox="0 0 132 120" style="enable-background:new 0 0 132 120;" xml:space="preserve">
<style type="text/css">
	.st0{fill:#F8F8F8;}
	.st1{clip-path:url(#SVGID_2_);}
	.st2{opacity:0.4;}
	.st3{fill:#190A77;}
	.st4{fill:#FFFFFF;}
	.st5{opacity:0.35;clip-path:url(#SVGID_2_);fill:url(#SVGID_3_);}
	.st6{clip-path:url(#SVGID_2_);fill:#D02003;}
</style>
<title>svg-source</title>
<g>
	<ellipse transform="matrix(0.7071 -0.7071 0.7071 0.7071 -23.0955 64.2426)" class="st0" cx="66" cy="60" rx="60" ry="60"/>
	<g>
		<defs>
			<path id="SVGID_1_" d="M66,120L66,120C32.9,120,6,93.1,6,60V0h120v60C126,93.1,99.1,120,66,120z"/>
		</defs>
		<clipPath id="SVGID_2_">
			<use xlink:href="#SVGID_1_"  style="overflow:visible;"/>
		</clipPath>
		<g class="st1">
			<g>
				<g class="st2">
					<path class="st3" d="M94,12H38c-1.1,0-2,0.9-2,2v39c0,1.1,0.9,2,2,2h56c1.1,0,2-0.9,2-2V14C96,12.9,95.1,12,94,12z"/>
					<path class="st3" d="M94,59H38c-1.1,0-2,0.9-2,2v39c0,1.1,0.9,2,2,2h56c1.1,0,2-0.9,2-2V61C96,59.9,95.1,59,94,59z"/>
					<path class="st3" d="M94.9,106H37.1c-0.6,0-1.1,0.5-1.1,1.1V120h60v-12.9C96,106.5,95.5,106,94.9,106z"/>
				</g>
				<path class="st3" d="M104,8H28c-2.2,0-4,1.8-4,4v108h4v-3c0-0.6,0.4-1,1-1h3c0.6,0,1,0.4,1,1v3h3v-12.9c0-0.6,0.5-1.1,1.1-1.1
					h57.7c0.6,0,1.1,0.5,1.1,1.1V120h3v-3c0-0.6,0.4-1,1-1h3c0.6,0,1,0.4,1,1v3h4V12C108,9.8,106.2,8,104,8z M33,112
					c0,0.6-0.4,1-1,1h-3c-0.6,0-1-0.4-1-1v-3c0-0.6,0.4-1,1-1h3c0.6,0,1,0.4,1,1V112z M33,104c0,0.6-0.4,1-1,1h-3c-0.6,0-1-0.4-1-1
					v-3c0-0.6,0.4-1,1-1h3c0.6,0,1,0.4,1,1V104z M33,96c0,0.6-0.4,1-1,1h-3c-0.6,0-1-0.4-1-1v-3c0-0.6,0.4-1,1-1h3c0.6,0,1,0.4,1,1
					V96z M33,88c0,0.6-0.4,1-1,1h-3c-0.6,0-1-0.4-1-1v-3c0-0.6,0.4-1,1-1h3c0.6,0,1,0.4,1,1V88z M33,80c0,0.6-0.4,1-1,1h-3
					c-0.6,0-1-0.4-1-1v-3c0-0.6,0.4-1,1-1h3c0.6,0,1,0.4,1,1V80z M33,72c0,0.6-0.4,1-1,1h-3c-0.6,0-1-0.4-1-1v-3c0-0.6,0.4-1,1-1h3
					c0.6,0,1,0.4,1,1V72z M33,64c0,0.6-0.4,1-1,1h-3c-0.6,0-1-0.4-1-1v-3c0-0.6,0.4-1,1-1h3c0.6,0,1,0.4,1,1V64z M33,56
					c0,0.6-0.4,1-1,1h-3c-0.6,0-1-0.4-1-1v-3c0-0.6,0.4-1,1-1h3c0.6,0,1,0.4,1,1V56z M33,48c0,0.6-0.4,1-1,1h-3c-0.6,0-1-0.4-1-1v-3
					c0-0.6,0.4-1,1-1h3c0.6,0,1,0.4,1,1V48z M33,40c0,0.6-0.4,1-1,1h-3c-0.6,0-1-0.4-1-1v-3c0-0.6,0.4-1,1-1h3c0.6,0,1,0.4,1,1V40z
					 M33,32c0,0.6-0.4,1-1,1h-3c-0.6,0-1-0.4-1-1v-3c0-0.6,0.4-1,1-1h3c0.6,0,1,0.4,1,1V32z M33,24c0,0.6-0.4,1-1,1h-3
					c-0.6,0-1-0.4-1-1v-3c0-0.6,0.4-1,1-1h3c0.6,0,1,0.4,1,1V24z M33,16c0,0.6-0.4,1-1,1h-3c-0.6,0-1-0.4-1-1v-3c0-0.6,0.4-1,1-1h3
					c0.6,0,1,0.4,1,1V16z M96,100c0,1.1-0.9,2-2,2H38c-1.1,0-2-0.9-2-2V61c0-1.1,0.9-2,2-2h56c1.1,0,2,0.9,2,2V100z M96,53
					c0,1.1-0.9,2-2,2H38c-1.1,0-2-0.9-2-2V14c0-1.1,0.9-2,2-2h56c1.1,0,2,0.9,2,2V53z M104,112c0,0.6-0.4,1-1,1h-3c-0.6,0-1-0.4-1-1
					v-3c0-0.6,0.4-1,1-1h3c0.6,0,1,0.4,1,1V112z M104,104c0,0.6-0.4,1-1,1h-3c-0.6,0-1-0.4-1-1v-3c0-0.6,0.4-1,1-1h3
					c0.6,0,1,0.4,1,1V104z M104,96c0,0.6-0.4,1-1,1h-3c-0.6,0-1-0.4-1-1v-3c0-0.6,0.4-1,1-1h3c0.6,0,1,0.4,1,1V96z M104,88
					c0,0.6-0.4,1-1,1h-3c-0.6,0-1-0.4-1-1v-3c0-0.6,0.4-1,1-1h3c0.6,0,1,0.4,1,1V88z M104,80c0,0.6-0.4,1-1,1h-3c-0.6,0-1-0.4-1-1
					v-3c0-0.6,0.4-1,1-1h3c0.6,0,1,0.4,1,1V80z M104,72c0,0.6-0.4,1-1,1h-3c-0.6,0-1-0.4-1-1v-3c0-0.6,0.4-1,1-1h3c0.6,0,1,0.4,1,1
					V72z M104,64c0,0.6-0.4,1-1,1h-3c-0.6,0-1-0.4-1-1v-3c0-0.6,0.4-1,1-1h3c0.6,0,1,0.4,1,1V64z M104,56c0,0.6-0.4,1-1,1h-3
					c-0.6,0-1-0.4-1-1v-3c0-0.6,0.4-1,1-1h3c0.6,0,1,0.4,1,1V56z M104,48c0,0.6-0.4,1-1,1h-3c-0.6,0-1-0.4-1-1v-3c0-0.6,0.4-1,1-1h3
					c0.6,0,1,0.4,1,1V48z M104,40c0,0.6-0.4,1-1,1h-3c-0.6,0-1-0.4-1-1v-3c0-0.6,0.4-1,1-1h3c0.6,0,1,0.4,1,1V40z M104,32
					c0,0.6-0.4,1-1,1h-3c-0.6,0-1-0.4-1-1v-3c0-0.6,0.4-1,1-1h3c0.6,0,1,0.4,1,1V32z M104,24c0,0.6-0.4,1-1,1h-3c-0.6,0-1-0.4-1-1
					v-3c0-0.6,0.4-1,1-1h3c0.6,0,1,0.4,1,1V24z M104,16c0,0.6-0.4,1-1,1h-3c-0.6,0-1-0.4-1-1v-3c0-0.6,0.4-1,1-1h3c0.6,0,1,0.4,1,1
					V16z"/>
			</g>
			<path class="st4" d="M79,46H53c-0.6,0-1-0.4-1-1l0,0c0-0.6,0.4-1,1-1h26c0.6,0,1,0.4,1,1l0,0C80,45.6,79.6,46,79,46z"/>
			<g>
				<path class="st4" d="M73,48H49c-0.6,0-1,0.4-1,1l0,0c0,0.6,0.4,1,1,1h24c0.6,0,1-0.4,1-1l0,0C74,48.4,73.6,48,73,48z"/>
				<path class="st4" d="M76,49L76,49c0,0.6,0.4,1,1,1h6c0.6,0,1-0.4,1-1l0,0c0-0.6-0.4-1-1-1h-6C76.4,48,76,48.4,76,49z"/>
			</g>
			<g>
				<g>
					<path class="st4" d="M67,95H53c-0.6,0-1,0.4-1,1l0,0c0,0.6,0.4,1,1,1h14c0.6,0,1-0.4,1-1l0,0C68,95.4,67.6,95,67,95z"/>
					<path class="st4" d="M70,96L70,96c0,0.6,0.4,1,1,1h8c0.6,0,1-0.4,1-1l0,0c0-0.6-0.4-1-1-1h-8C70.4,95,70,95.4,70,96z"/>
				</g>
				<g>
					<path class="st4" d="M61,93h6c0.6,0,1-0.4,1-1l0,0c0-0.6-0.4-1-1-1h-6c-0.6,0-1,0.4-1,1l0,0C60,92.6,60.4,93,61,93z"/>
					<path class="st4" d="M83,91H71c-0.6,0-1,0.4-1,1l0,0c0,0.6,0.4,1,1,1h12c0.6,0,1-0.4,1-1S83.6,91,83,91z"/>
					<path class="st4" d="M58,92c0-0.6-0.4-1-1-1h-8c-0.6,0-1,0.4-1,1s0.4,1,1,1h8C57.6,93,58,92.6,58,92L58,92z"/>
				</g>
			</g>
		</g>
		<linearGradient id="SVGID_3_" gradientUnits="userSpaceOnUse" x1="65.8333" y1="75.3333" x2="65.8333" y2="160.3392">
			<stop  offset="0" style="stop-color:#190A34;stop-opacity:0"/>
			<stop  offset="1" style="stop-color:#190A34"/>
		</linearGradient>
		<path class="st5" d="M103.8,8h-76c-2.2,0-4,1.8-4,4v108h4v-3c0-0.6,0.4-1,1-1h3c0.6,0,1,0.4,1,1v3h3h60h3v-3c0-0.6,0.4-1,1-1h3
			c0.6,0,1,0.4,1,1v3h4V12C107.8,9.8,106,8,103.8,8z M32.8,112c0,0.6-0.4,1-1,1h-3c-0.6,0-1-0.4-1-1v-3c0-0.6,0.4-1,1-1h3
			c0.6,0,1,0.4,1,1V112z M32.8,104c0,0.6-0.4,1-1,1h-3c-0.6,0-1-0.4-1-1v-3c0-0.6,0.4-1,1-1h3c0.6,0,1,0.4,1,1V104z M32.8,96
			c0,0.6-0.4,1-1,1h-3c-0.6,0-1-0.4-1-1v-3c0-0.6,0.4-1,1-1h3c0.6,0,1,0.4,1,1V96z M32.8,88c0,0.6-0.4,1-1,1h-3c-0.6,0-1-0.4-1-1v-3
			c0-0.6,0.4-1,1-1h3c0.6,0,1,0.4,1,1V88z M32.8,80c0,0.6-0.4,1-1,1h-3c-0.6,0-1-0.4-1-1v-3c0-0.6,0.4-1,1-1h3c0.6,0,1,0.4,1,1V80z
			 M32.8,72c0,0.6-0.4,1-1,1h-3c-0.6,0-1-0.4-1-1v-3c0-0.6,0.4-1,1-1h3c0.6,0,1,0.4,1,1V72z M32.8,64c0,0.6-0.4,1-1,1h-3
			c-0.6,0-1-0.4-1-1v-3c0-0.6,0.4-1,1-1h3c0.6,0,1,0.4,1,1V64z M32.8,56c0,0.6-0.4,1-1,1h-3c-0.6,0-1-0.4-1-1v-3c0-0.6,0.4-1,1-1h3
			c0.6,0,1,0.4,1,1V56z M32.8,48c0,0.6-0.4,1-1,1h-3c-0.6,0-1-0.4-1-1v-3c0-0.6,0.4-1,1-1h3c0.6,0,1,0.4,1,1V48z M32.8,40
			c0,0.6-0.4,1-1,1h-3c-0.6,0-1-0.4-1-1v-3c0-0.6,0.4-1,1-1h3c0.6,0,1,0.4,1,1V40z M32.8,32c0,0.6-0.4,1-1,1h-3c-0.6,0-1-0.4-1-1v-3
			c0-0.6,0.4-1,1-1h3c0.6,0,1,0.4,1,1V32z M32.8,24c0,0.6-0.4,1-1,1h-3c-0.6,0-1-0.4-1-1v-3c0-0.6,0.4-1,1-1h3c0.6,0,1,0.4,1,1V24z
			 M32.8,16c0,0.6-0.4,1-1,1h-3c-0.6,0-1-0.4-1-1v-3c0-0.6,0.4-1,1-1h3c0.6,0,1,0.4,1,1V16z M103.8,112c0,0.6-0.4,1-1,1h-3
			c-0.6,0-1-0.4-1-1v-3c0-0.6,0.4-1,1-1h3c0.6,0,1,0.4,1,1V112z M103.8,104c0,0.6-0.4,1-1,1h-3c-0.6,0-1-0.4-1-1v-3c0-0.6,0.4-1,1-1
			h3c0.6,0,1,0.4,1,1V104z M103.8,96c0,0.6-0.4,1-1,1h-3c-0.6,0-1-0.4-1-1v-3c0-0.6,0.4-1,1-1h3c0.6,0,1,0.4,1,1V96z M103.8,88
			c0,0.6-0.4,1-1,1h-3c-0.6,0-1-0.4-1-1v-3c0-0.6,0.4-1,1-1h3c0.6,0,1,0.4,1,1V88z M103.8,80c0,0.6-0.4,1-1,1h-3c-0.6,0-1-0.4-1-1
			v-3c0-0.6,0.4-1,1-1h3c0.6,0,1,0.4,1,1V80z M103.8,72c0,0.6-0.4,1-1,1h-3c-0.6,0-1-0.4-1-1v-3c0-0.6,0.4-1,1-1h3c0.6,0,1,0.4,1,1
			V72z M103.8,64c0,0.6-0.4,1-1,1h-3c-0.6,0-1-0.4-1-1v-3c0-0.6,0.4-1,1-1h3c0.6,0,1,0.4,1,1V64z M103.8,56c0,0.6-0.4,1-1,1h-3
			c-0.6,0-1-0.4-1-1v-3c0-0.6,0.4-1,1-1h3c0.6,0,1,0.4,1,1V56z M103.8,48c0,0.6-0.4,1-1,1h-3c-0.6,0-1-0.4-1-1v-3c0-0.6,0.4-1,1-1h3
			c0.6,0,1,0.4,1,1V48z M103.8,40c0,0.6-0.4,1-1,1h-3c-0.6,0-1-0.4-1-1v-3c0-0.6,0.4-1,1-1h3c0.6,0,1,0.4,1,1V40z M103.8,32
			c0,0.6-0.4,1-1,1h-3c-0.6,0-1-0.4-1-1v-3c0-0.6,0.4-1,1-1h3c0.6,0,1,0.4,1,1V32z M103.8,24c0,0.6-0.4,1-1,1h-3c-0.6,0-1-0.4-1-1
			v-3c0-0.6,0.4-1,1-1h3c0.6,0,1,0.4,1,1V24z M103.8,16c0,0.6-0.4,1-1,1h-3c-0.6,0-1-0.4-1-1v-3c0-0.6,0.4-1,1-1h3c0.6,0,1,0.4,1,1
			V16z"/>
		<path class="st6" d="M72,80.5l-9,5.2c-1.3,0.8-3-0.2-3-1.7V73.6c0-1.5,1.7-2.5,3-1.7l9,5.2C73.3,77.8,73.3,79.8,72,80.5z"/>
		<path class="st6" d="M72,33.5l-9,5.2c-1.3,0.8-3-0.2-3-1.7V26.6c0-1.5,1.7-2.5,3-1.7l9,5.2C73.3,30.8,73.3,32.8,72,33.5z"/>
	</g>
</g>
</svg>
