<svg xmlns="http://www.w3.org/2000/svg" xmlns:xlink="http://www.w3.org/1999/xlink" viewBox="0 0 132 120"><defs><style>.cls-1{fill:#f8f8f8;}.cls-2{fill:#a39fc4;}.cls-3{opacity:0.15;fill:url(#linear-gradient);}.cls-4{fill:#190a77;}.cls-5{fill:#d02003;}</style><linearGradient id="linear-gradient" x1="-256.08" y1="-329.85" x2="-151.13" y2="-329.85" gradientTransform="translate(-263.81 263.61) rotate(90)" gradientUnits="userSpaceOnUse"><stop offset="0" stop-color="#190a34" stop-opacity="0"/><stop offset="0.99" stop-color="#190a34"/></linearGradient></defs><g id="Layer_1" data-name="Layer 1"><circle class="cls-1" cx="66" cy="60" r="60"/><path class="cls-2" d="M13.52,60A52.48,52.48,0,1,1,66,112.48,52.48,52.48,0,0,1,13.52,60Z"/><path class="cls-3" d="M66,7.52A52.48,52.48,0,1,1,13.56,60,52.48,52.48,0,0,1,66,7.52Z"/><path class="cls-4" d="M94.13,47.87a3.49,3.49,0,0,0-3.49-3.49H41.36a3.49,3.49,0,0,0-3.49,3.49h0a3.49,3.49,0,0,0,3.49,3.49h15.9a2.08,2.08,0,0,1,2.07,2.3L58.25,63.9a87.15,87.15,0,0,1-2.83,14.58L52.6,88.42A3.48,3.48,0,0,0,55,92.73h0a3.49,3.49,0,0,0,4.31-2.4l5.29-18.62a1.45,1.45,0,0,1,2.78,0l5.29,18.62A3.49,3.49,0,0,0,77,92.73h0a3.48,3.48,0,0,0,2.41-4.31l-2.82-9.94A87.15,87.15,0,0,1,73.75,63.9L72.67,53.66a2.08,2.08,0,0,1,2.07-2.3h15.9a3.49,3.49,0,0,0,3.49-3.49Z"/><circle class="cls-4" cx="66" cy="34.94" r="7.8"/><path class="cls-5" d="M66,17.58A42.42,42.42,0,1,0,108.42,60,42.42,42.42,0,0,0,66,17.58Zm0,88.54A46.12,46.12,0,1,1,112.12,60,46.12,46.12,0,0,1,66,106.12Z"/></g></svg>