<svg id="Layer_1" data-name="Layer 1" xmlns="http://www.w3.org/2000/svg" viewBox="0 0 132 120"><defs><style>.cls-1{fill:#f8f8f8;}.cls-2{font-size:42.12px;fill:#190a77;stroke:#190a77;stroke-miterlimit:10;stroke-width:3px;font-family:AzoSans-Bold, Azo Sans;font-weight:700;letter-spacing:-0.07em;}.cls-3{fill:#a39fc4;}</style></defs><circle class="cls-1" cx="66" cy="60" r="60"/><text class="cls-2" transform="translate(15.99 76.48)">AD</text><path class="cls-3" d="M92.53,84.52l-4.71-4.71a26.71,26.71,0,0,0,0-37.71l4.71-4.72A33.37,33.37,0,0,1,92.53,84.52Z"/><path class="cls-3" d="M102,94l-4.72-4.71a40,40,0,0,0,0-56.57L102,28A46.72,46.72,0,0,1,102,94Z"/><path class="cls-3" d="M83.1,75.1l-4.71-4.72a13.34,13.34,0,0,0,0-18.85l4.71-4.72A20,20,0,0,1,83.1,75.1Z"/></svg>