<?xml version="1.0" encoding="utf-8"?>
<!-- Generator: Adobe Illustrator 19.2.1, SVG Export Plug-In . SVG Version: 6.00 Build 0)  -->
<svg version="1.1" id="Layer_1" xmlns="http://www.w3.org/2000/svg" xmlns:xlink="http://www.w3.org/1999/xlink" x="0px" y="0px"
	 viewBox="0 0 132 120" style="enable-background:new 0 0 132 120;" xml:space="preserve">
<style type="text/css">
	.st0{fill:#F8F8F8;}
	.st1{clip-path:url(#SVGID_2_);}
	.st2{fill:#190A77;}
	.st3{fill:#A39FC4;}
	.st4{fill:#FFFFFF;}
	.st5{fill:#D02003;}
	.st6{opacity:0.2;fill:url(#SVGID_3_);}
</style>
<title>svg-source</title>
<g>
	<circle class="st0" cx="66" cy="60" r="60"/>
	<g>
		<defs>
			<path id="SVGID_1_" d="M66,120H0V0l66,0c33.1,0,60,26.9,60,60v0C126,93.1,99.1,120,66,120z"/>
		</defs>
		<clipPath id="SVGID_2_">
			<use xlink:href="#SVGID_1_"  style="overflow:visible;"/>
		</clipPath>
		<g class="st1">
			<g>
				<path class="st2" d="M86.7,18H17.3C7.8,18,0,25.8,0,35.3v5.3C0,50.2,7.8,58,17.3,58H23v8.8c0,1.2,1.5,1.9,2.4,1l5.3-4.9
					c3.4-3.2,8-4.9,12.6-4.9h43.4c9.6,0,17.3-7.8,17.3-17.3v-5.3C104,25.8,96.2,18,86.7,18z"/>
				<path class="st3" d="M114.7,63H109v-8.8c0-1.2-1.5-1.9-2.4-1l-5.3,4.9c-3.4,3.2-8,4.9-12.6,4.9H45.3C35.8,63,28,70.8,28,80.3
					v5.3c0,9.6,7.8,17.3,17.3,17.3h69.3c9.6,0,17.3-7.8,17.3-17.3v-5.3C132,70.8,124.2,63,114.7,63z"/>
			</g>
			<g>
				<path class="st4" d="M24.4,30.6h3.4v6h6.7v-6h3.4V46h-3.4v-6.5h-6.7V46h-3.4V30.6z"/>
				<path class="st4" d="M43.3,41.6c0.4,1.5,1.6,2.1,3,2.1c1.2,0,2.5-0.4,3.6-1.2v2.7c-1,0.6-2.6,1-4,1c-3.5,0-6-2.2-6-5.4
					c0-3.3,2.6-5.5,5.5-5.5c2.6,0,5,1.7,5,5.2c0,0.4,0,0.8-0.1,1.1H43.3z M47.5,39.6c-0.2-1.1-1-1.8-2.1-1.8c-1,0-1.9,0.6-2.2,1.8
					H47.5z"/>
				<path class="st4" d="M52.6,29.7h3.2V46h-3.2V29.7z"/>
				<path class="st4" d="M58.5,29.7h3.2V46h-3.2V29.7z"/>
				<path class="st4" d="M69.6,35.3c3.3,0,5.8,2.4,5.8,5.5s-2.5,5.5-5.8,5.5c-3.3,0-5.8-2.4-5.8-5.5S66.3,35.3,69.6,35.3z
					 M69.6,43.4c1.5,0,2.6-1.2,2.6-2.7s-1.1-2.7-2.6-2.7S67,39.3,67,40.8S68.2,43.4,69.6,43.4z"/>
				<path class="st4" d="M77.4,30.6h3.8l-0.8,10.3h-2.2L77.4,30.6z"/>
				<path class="st5" d="M79.3,42.5c1,0,1.9,0.8,1.9,1.9s-0.9,1.9-1.9,1.9c-1,0-1.9-0.8-1.9-1.9S78.3,42.5,79.3,42.5z"/>
			</g>
			<linearGradient id="SVGID_3_" gradientUnits="userSpaceOnUse" x1="37.0047" y1="65.1028" x2="173.0047" y2="110.7694">
				<stop  offset="0" style="stop-color:#190A34;stop-opacity:0"/>
				<stop  offset="1" style="stop-color:#190A34"/>
			</linearGradient>
			<path class="st6" d="M114.7,63H109v-8.8c0-1.2-1.5-1.9-2.4-1l-5.3,4.9c-3.4,3.2-8,4.9-12.6,4.9H45.3C35.8,63,28,70.8,28,80.3v5.3
				c0,9.6,7.8,17.3,17.3,17.3h69.3c9.6,0,17.3-7.8,17.3-17.3v-5.3C132,70.8,124.2,63,114.7,63z"/>
		</g>
	</g>
	<g>
		<path class="st4" d="M61.6,77.6c-1.1,0.3-2.3,0.6-3.7,0.7c0,1,0,2,0,2.9c1.5-0.4,3-0.7,4.1-0.7c3.5,0,6.2,1.8,6.2,5.2
			c0,3.1-1.8,5.4-5.4,5.4c-1.5,0-2.8-0.6-4-1.9c0.4-0.6,1-1.4,1.3-2.1c0.8,1,1.7,1.5,2.7,1.5c1.7,0,2.7-1.2,2.7-2.9
			c0-1.7-1.2-2.9-3.5-2.9c-1.2,0-2.6,0.3-4,0.7v4.2c0,2-1.3,3.7-3.9,3.7c-1.9,0-4-1-4-3.7c0-1.5,1-3,2.6-4.1
			c0.8-0.6,1.7-1.1,2.7-1.5v-3.7c-1.4,0.1-3,0.1-4.7,0.1l0-2.6c1.8,0,3.4,0,4.8-0.1v-3.6l3.4,0.1c0,0.3-0.2,0.4-0.6,0.5
			c-0.1,0.8-0.1,1.8-0.1,2.8c1.2-0.2,2.3-0.4,3.3-0.8L61.6,77.6z M55.3,84.6c-1.2,0.7-2.9,1.7-2.9,3.1c0,0.9,0.5,1.4,1.5,1.4
			c0.9,0,1.4-0.5,1.4-1.5C55.3,87.1,55.3,85.9,55.3,84.6z M67.4,79.6c-1.2-1.1-3.1-2.2-4.8-2.8l1.3-2.2c1.9,0.6,3.8,1.7,5,2.8
			L67.4,79.6z"/>
		<path class="st4" d="M90.6,84.8v2.4h-8.7V92h-2.7v-4.8h-8.4v-2.4h8.4v-1.9H73V73h15.4v9.9h-5.9c0,0.2-0.2,0.3-0.6,0.3v1.6H90.6z
			 M75.5,75.2v1.6h10.2v-1.6H75.5z M75.5,78.9v1.6h10.2v-1.6H75.5z"/>
		<path class="st4" d="M92.2,79.6c3.3-0.9,7.4-1.8,9.1-1.8c2.9,0,5.5,1.5,5.4,5.3c0,4.2-3.1,6.9-9,8.7c-0.4-0.6-1.2-1.7-1.8-2.4
			c5.1-1.2,7.8-3.5,7.8-6.2c0-1.7-0.9-2.8-2.6-2.8c-1.8,0-4.7,0.7-7.5,1.8c0,0.2-0.2,0.4-0.4,0.5L92.2,79.6z M95.6,72.3
			c3,0.2,6.3,0.7,8.5,1.4l-0.7,2.7c-2.3-0.8-5.8-1.4-8.4-1.6L95.6,72.3z"/>
	</g>
</g>
</svg>
