<svg xmlns="http://www.w3.org/2000/svg" xmlns:xlink="http://www.w3.org/1999/xlink" width="131.9999" height="120" viewBox="0 0 131.9999 120">
  <defs>
    <style>
      .a {
        fill: none;
      }

      .b {
        fill: #f8f8f8;
      }

      .c {
        clip-path: url(#a);
      }

      .d {
        fill: #180e6c;
      }

      .e {
        fill: url(#b);
      }

      .f {
        fill: #a39fc4;
      }

      .g {
        opacity: 0.35;
      }

      .h {
        fill: url(#c);
      }

      .i {
        fill: url(#d);
      }

      .j {
        fill: #d02003;
      }
    </style>
    <clipPath id="a">
      <path class="a" d="M6,0H126a0,0,0,0,1,0,0V60a60,60,0,0,1-60,60h0A60,60,0,0,1,6,60V0A0,0,0,0,1,6,0Z"/>
    </clipPath>
    <linearGradient id="b" x1="62.9936" y1="104.9244" x2="62.9936" y2="85.5708" gradientUnits="userSpaceOnUse">
      <stop offset="0" stop-color="#190a34" stop-opacity="0"/>
      <stop offset="1" stop-color="#190a34"/>
    </linearGradient>
    <linearGradient id="c" x1="58.7847" y1="26.4051" x2="58.7847" y2="81.6489" xlink:href="#b"/>
    <linearGradient id="d" x1="112.8987" y1="26.4051" x2="112.8987" y2="81.6489" xlink:href="#b"/>
  </defs>
  <title>icon-revision copy 2</title>
  <circle class="b" cx="65.9999" cy="60" r="60"/>
  <g class="c">
    <g>
      <path class="d" d="M44.9556,85.3291v4.81h7.2152a7.2152,7.2152,0,0,1,7.2152,7.2152V122.19a4.81,4.81,0,0,0,4.81,4.81H76.2215a4.81,4.81,0,0,0,4.81-4.81V85.3291Z"/>
      <path class="e" d="M44.9556,85.3291v4.81h7.2152a7.2152,7.2152,0,0,1,7.2152,7.2152V122.19a4.81,4.81,0,0,0,4.81,4.81H76.2215a4.81,4.81,0,0,0,4.81-4.81V85.3291Z"/>
      <path class="f" d="M25.7151,24H91.8544A7.2152,7.2152,0,0,1,99.07,31.2152V79.3165a2.4051,2.4051,0,0,1-2.4051,2.4051H25.7151A7.2152,7.2152,0,0,1,18.5,74.5063V31.2152A7.2152,7.2152,0,0,1,25.7151,24Z"/>
      <path class="d" d="M34.1328,81.7215H93.0569a0,0,0,0,1,0,0v6.0127a2.4051,2.4051,0,0,1-2.4051,2.4051H36.5379a2.4051,2.4051,0,0,1-2.4051-2.4051V81.7215A0,0,0,0,1,34.1328,81.7215Z"/>
      <path class="d" d="M14.8923,33.62H18.5a0,0,0,0,1,0,0V49.2532a0,0,0,0,1,0,0H14.8923a3.6076,3.6076,0,0,1-3.6076-3.6076V37.2278A3.6076,3.6076,0,0,1,14.8923,33.62Z"/>
      <rect class="d" x="99.0696" y="42.038" width="6.0127" height="24.0506"/>
      <path class="f" d="M111.0365,70.6688l-5.9543-4.58V42.038l5.9543-4.58a6.0126,6.0126,0,0,1,9.6786,4.7657v23.68A6.0126,6.0126,0,0,1,111.0365,70.6688Z"/>
      <g class="g">
        <path class="h" d="M91.8544,24H25.7151A7.2152,7.2152,0,0,0,18.5,31.2152V74.5063a7.2152,7.2152,0,0,0,7.2152,7.2152H96.6645a2.4051,2.4051,0,0,0,2.4051-2.405V31.2152A7.2152,7.2152,0,0,0,91.8544,24Z"/>
        <path class="i" d="M111.0364,37.4578l-5.9542,4.58V66.0886l5.9542,4.58a6.0127,6.0127,0,0,0,9.6787-4.7657v-23.68A6.0127,6.0127,0,0,0,111.0364,37.4578Z"/>
      </g>
      <path class="f" d="M18.5,68.4937H58.1835a2.4051,2.4051,0,0,1,2.4051,2.4051v0a2.4051,2.4051,0,0,1-2.4051,2.4051H18.5a0,0,0,0,1,0,0v-4.81A0,0,0,0,1,18.5,68.4937Z"/>
      <rect class="f" x="62.9936" y="68.4937" width="6.0127" height="4.8101" rx="2.4051" ry="2.4051"/>
      <rect class="f" x="71.4113" y="68.4937" width="6.0127" height="4.8101" rx="2.4051" ry="2.4051"/>
      <rect class="j" x="79.8291" y="68.4937" width="6.0127" height="4.8101" rx="2.4051" ry="2.4051"/>
    </g>
  </g>
</svg>
