<svg xmlns="http://www.w3.org/2000/svg" viewBox="0 0 132 120"><defs><style>.cls-1{fill:#f8f8f8;}.cls-2{fill:#190a77;}.cls-3{fill:#a39fc4;}</style></defs><g id="Layer_1" data-name="Layer 1"><circle class="cls-1" cx="66" cy="60" r="60"/></g><g id="Layer_3" data-name="Layer 3"><path class="cls-2" d="M33.74,36.77,1.26,82.51a.66.66,0,0,0,.53,1h13a.65.65,0,0,0,.55-.3l3.74-5.68H34v5.33a.65.65,0,0,0,.65.65H45.55a.65.65,0,0,0,.65-.65V37a.65.65,0,0,0-.65-.65h-11A1,1,0,0,0,33.74,36.77Zm-8,30.57L34,54.82V67.34Z"/><path class="cls-2" d="M66.26,36.35H52.16a.66.66,0,0,0-.66.65V83a.66.66,0,0,0,.66.65h14.1A23.65,23.65,0,0,0,89.91,60h0A23.65,23.65,0,0,0,66.26,36.35ZM77.81,60.18A11.72,11.72,0,0,1,66.1,71.9H63.81V48.46H66.1A11.72,11.72,0,0,1,77.81,60.18Z"/><path class="cls-3" d="M122,60.18a56.75,56.75,0,0,1-4.65,22.56.65.65,0,0,0,.59.91H123a1.3,1.3,0,0,0,1.22-.83,63.46,63.46,0,0,0-.15-45.64,1.3,1.3,0,0,0-1.21-.83h-5.1a.65.65,0,0,0-.59.92A56.66,56.66,0,0,1,122,60.18Z"/><path class="cls-3" d="M93.29,36.35H87a.65.65,0,0,0-.44,1.12,31.22,31.22,0,0,1,.36,45.06.65.65,0,0,0,.46,1.12h6.24a1.34,1.34,0,0,0,1-.48,36.58,36.58,0,0,0-.32-46.35A1.28,1.28,0,0,0,93.29,36.35Z"/><path class="cls-3" d="M109.14,60.18A43.88,43.88,0,0,1,103,82.66a.65.65,0,0,0,.55,1H109a1.31,1.31,0,0,0,1.17-.71,50.49,50.49,0,0,0-.19-45.89,1.3,1.3,0,0,0-1.16-.7h-5.47a.65.65,0,0,0-.55,1A43.88,43.88,0,0,1,109.14,60.18Z"/></g></svg>