<?xml version="1.0" encoding="utf-8"?>
<!-- Generator: Adobe Illustrator 24.2.1, SVG Export Plug-In . SVG Version: 6.00 Build 0)  -->
<svg version="1.1" id="Layer_1" xmlns="http://www.w3.org/2000/svg" xmlns:xlink="http://www.w3.org/1999/xlink" x="0px" y="0px"
	 viewBox="0 0 132 120" style="enable-background:new 0 0 132 120;" xml:space="preserve">
<style type="text/css">
	.st0{fill:#F8F8F8;}
	.st1{fill:#190A77;}
	.st2{fill:#A39FC4;}
	.st3{fill:#D02003;}
</style>
<g id="Layer_1_1_">
	<circle class="st0" cx="66" cy="60" r="60"/>
</g>
<g id="Layer_3">
	<path class="st1" d="M33.7,36.8L1.3,82.5c-0.2,0.3-0.1,0.7,0.2,0.9c0.1,0.1,0.2,0.1,0.3,0.1h13c0.2,0,0.4-0.1,0.6-0.3l3.7-5.7H34
		v5.3c0,0.4,0.3,0.7,0.6,0.7h0h10.9c0.4,0,0.7-0.3,0.7-0.7l0,0V37c0-0.4-0.3-0.7-0.6-0.7h0h-11C34.2,36.4,33.9,36.5,33.7,36.8z
		 M25.7,67.3L34,54.8v12.5H25.7z"/>
	<path class="st1" d="M66.3,36.3H52.2c-0.4,0-0.7,0.3-0.7,0.7v46c0,0.4,0.3,0.7,0.7,0.7h14.1c13.1,0,23.7-10.6,23.7-23.7l0,0l0,0
		C89.9,46.9,79.3,36.3,66.3,36.3L66.3,36.3z M77.8,60.2c0,6.5-5.2,11.7-11.7,11.7h-2.3V48.5h2.3C72.6,48.5,77.8,53.7,77.8,60.2z"/>
	<path class="st2" d="M122,60.2c0,7.8-1.6,15.4-4.7,22.6c-0.1,0.3,0,0.7,0.3,0.9c0.1,0,0.2,0.1,0.3,0.1h5.1c0.5,0,1-0.3,1.2-0.8
		c5.6-14.7,5.6-31-0.2-45.6c-0.2-0.5-0.7-0.8-1.2-0.8h-5.1c-0.4,0-0.6,0.3-0.6,0.7c0,0.1,0,0.2,0.1,0.3
		C120.4,44.5,122,52.3,122,60.2z"/>
	<path class="st3" d="M93.3,36.3H87c-0.4,0-0.6,0.3-0.6,0.7c0,0.2,0.1,0.3,0.2,0.5c12.5,11.8,13.1,31.6,1.3,44.1
		c-0.3,0.3-0.6,0.6-0.9,0.9c-0.3,0.2-0.3,0.7,0,0.9c0.1,0.1,0.3,0.2,0.5,0.2h6.2c0.4,0,0.8-0.2,1-0.5c10.9-13.6,10.8-32.9-0.3-46.3
		C94.1,36.5,93.7,36.3,93.3,36.3z"/>
	<path class="st2" d="M109.1,60.2c0,7.9-2.1,15.7-6.1,22.5c-0.2,0.3-0.1,0.7,0.2,0.9c0.1,0.1,0.2,0.1,0.4,0.1h5.4
		c0.5,0,0.9-0.3,1.2-0.7c7.3-14.4,7.2-31.5-0.2-45.9c-0.2-0.4-0.7-0.7-1.2-0.7h-5.5c-0.4,0-0.7,0.3-0.7,0.6c0,0.1,0,0.2,0.1,0.4
		C107,44.2,109.2,52.1,109.1,60.2z"/>
</g>
</svg>
