<svg id="Layer_1" data-name="Layer 1" xmlns="http://www.w3.org/2000/svg" xmlns:xlink="http://www.w3.org/1999/xlink" width="132" height="120" viewBox="0 0 132 120"><defs><style>.cls-1{fill:none;}.cls-2{fill:#f8f8f8;}.cls-3{clip-path:url(#clip-path);}.cls-4,.cls-6{opacity:0.35;}.cls-4{fill:url(#linear-gradient);}.cls-5{fill:#a39fc4;}.cls-6{fill:url(#linear-gradient-2);}.cls-7{fill:#180e6c;}.cls-8{fill:#d02003;}</style><clipPath id="clip-path"><path class="cls-1" d="M71.25-2.17h0a60,60,0,0,1,60,60v74.83a0,0,0,0,1,0,0h-120a0,0,0,0,1,0,0V57.83a60,60,0,0,1,60-60Z" transform="translate(-25.27 69.49) rotate(-45)"/></clipPath><linearGradient id="linear-gradient" x1="50.17" y1="113.85" x2="111.09" y2="113.85" gradientUnits="userSpaceOnUse"><stop offset="0" stop-color="#190a34" stop-opacity="0"/><stop offset="1" stop-color="#190a34"/></linearGradient><linearGradient id="linear-gradient-2" x1="72.12" y1="64.91" x2="72.12" y2="34.01" gradientTransform="translate(-27.46 68.54) rotate(-45)" xlink:href="#linear-gradient"/></defs><title>svg-source</title><circle class="cls-2" cx="66" cy="60" r="60" transform="translate(-23.1 64.24) rotate(-45)"/><g class="cls-3"><path class="cls-4" d="M-28.67,112.66H111.58a1.19,1.19,0,0,1,1.19,1.19v0a1.19,1.19,0,0,1-1.19,1.19H-28.67a0,0,0,0,1,0,0v-2.38A0,0,0,0,1-28.67,112.66Z"/><path class="cls-5" d="M11.45,5.44L58.82,85a9.41,9.41,0,0,0,4.29,3.8l47.81,21.05a3.76,3.76,0,0,0,5-5L94.83,57.11A9.41,9.41,0,0,0,91,52.82Z"/><path class="cls-6" d="M11.45,5.44L58.82,85a9.41,9.41,0,0,0,4.29,3.8l47.81,21.05a3.76,3.76,0,0,0,5-5L94.83,57.11A9.41,9.41,0,0,0,91,52.82Z"/><path class="cls-7" d="M12.7-25L-19,6.69,39.9,60.35a3.12,3.12,0,0,0,4.3-.1L66.26,38.2a3.12,3.12,0,0,0,.1-4.3Z"/><path class="cls-7" d="M114.48,109.59a3.88,3.88,0,0,0,1.11-1.11L80.78,73.67l-1.11,1.11Z"/><circle class="cls-7" cx="78.34" cy="72.34" r="5.69" transform="translate(-28.21 76.58) rotate(-45)"/><rect class="cls-8" x="21.48" y="34.73" width="42.72" height="4.2" rx="2.05" ry="2.05" transform="translate(-13.5 41.08) rotate(-45)"/></g></svg>