<?xml version="1.0" encoding="utf-8"?>
<!-- Generator: Adobe Illustrator 23.0.2, SVG Export Plug-In . SVG Version: 6.00 Build 0)  -->
<svg version="1.1" id="Layer_1" xmlns="http://www.w3.org/2000/svg" xmlns:xlink="http://www.w3.org/1999/xlink" x="0px" y="0px"
	 viewBox="0 0 245 50" style="enable-background:new 0 0 245 50;" xml:space="preserve">
<style type="text/css">
	.st0{fill:#A9A6C8;}
</style>
<title>Artboard 3</title>
<g id="Layer_3">
	<path class="st0" d="M2,18.5h9c1.1,0,2,0.9,2,2v9c0,1.1-0.9,2-2,2H2c-1.1,0-2-0.9-2-2v-9C0,19.4,0.9,18.5,2,18.5z"/>
	<path class="st0" d="M31,18.5h9c1.1,0,2,0.9,2,2v9c0,1.1-0.9,2-2,2h-9c-1.1,0-2-0.9-2-2v-9C29,19.4,29.9,18.5,31,18.5z"/>
	<path class="st0" d="M60,18.5h9c1.1,0,2,0.9,2,2v9c0,1.1-0.9,2-2,2h-9c-1.1,0-2-0.9-2-2v-9C58,19.4,58.9,18.5,60,18.5z"/>
	<path class="st0" d="M89,18.5h9c1.1,0,2,0.9,2,2v9c0,1.1-0.9,2-2,2h-9c-1.1,0-2-0.9-2-2v-9C87,19.4,87.9,18.5,89,18.5z"/>
	<path class="st0" d="M118,18.5h9c1.1,0,2,0.9,2,2v9c0,1.1-0.9,2-2,2h-9c-1.1,0-2-0.9-2-2v-9C116,19.4,116.9,18.5,118,18.5z"/>
	<path class="st0" d="M147,18.5h9c1.1,0,2,0.9,2,2v9c0,1.1-0.9,2-2,2h-9c-1.1,0-2-0.9-2-2v-9C145,19.4,145.9,18.5,147,18.5z"/>
	<path class="st0" d="M176,18.5h9c1.1,0,2,0.9,2,2v9c0,1.1-0.9,2-2,2h-9c-1.1,0-2-0.9-2-2v-9C174,19.4,174.9,18.5,176,18.5z"/>
	<path class="st0" d="M205,18.5h9c1.1,0,2,0.9,2,2v9c0,1.1-0.9,2-2,2h-9c-1.1,0-2-0.9-2-2v-9C203,19.4,203.9,18.5,205,18.5z"/>
	<path class="st0" d="M234,18.5h9c1.1,0,2,0.9,2,2v9c0,1.1-0.9,2-2,2h-9c-1.1,0-2-0.9-2-2v-9C232,19.4,232.9,18.5,234,18.5z"/>
</g>
</svg>
