<?xml version="1.0" encoding="utf-8"?>
<!-- Generator: Adobe Illustrator 23.0.2, SVG Export Plug-In . SVG Version: 6.00 Build 0)  -->
<svg version="1.1" id="Layer_1" xmlns="http://www.w3.org/2000/svg" xmlns:xlink="http://www.w3.org/1999/xlink" x="0px" y="0px"
	 viewBox="0 0 245 50" style="enable-background:new 0 0 245 50;" xml:space="preserve">
<style type="text/css">
	.st0{fill:#F8F8F8;}
</style>
<title>Artboard 3</title>
<g id="Layer_3">
	<path class="st0" d="M2,18h9c1.1,0,2,0.9,2,2v9c0,1.1-0.9,2-2,2H2c-1.1,0-2-0.9-2-2v-9C0,18.9,0.9,18,2,18z"/>
	<path class="st0" d="M31,18h9c1.1,0,2,0.9,2,2v9c0,1.1-0.9,2-2,2h-9c-1.1,0-2-0.9-2-2v-9C29,18.9,29.9,18,31,18z"/>
	<path class="st0" d="M60,18h9c1.1,0,2,0.9,2,2v9c0,1.1-0.9,2-2,2h-9c-1.1,0-2-0.9-2-2v-9C58,18.9,58.9,18,60,18z"/>
	<path class="st0" d="M89,18h9c1.1,0,2,0.9,2,2v9c0,1.1-0.9,2-2,2h-9c-1.1,0-2-0.9-2-2v-9C87,18.9,87.9,18,89,18z"/>
	<path class="st0" d="M118,18h9c1.1,0,2,0.9,2,2v9c0,1.1-0.9,2-2,2h-9c-1.1,0-2-0.9-2-2v-9C116,18.9,116.9,18,118,18z"/>
	<path class="st0" d="M147,18h9c1.1,0,2,0.9,2,2v9c0,1.1-0.9,2-2,2h-9c-1.1,0-2-0.9-2-2v-9C145,18.9,145.9,18,147,18z"/>
	<path class="st0" d="M176,18h9c1.1,0,2,0.9,2,2v9c0,1.1-0.9,2-2,2h-9c-1.1,0-2-0.9-2-2v-9C174,18.9,174.9,18,176,18z"/>
	<path class="st0" d="M205,18h9c1.1,0,2,0.9,2,2v9c0,1.1-0.9,2-2,2h-9c-1.1,0-2-0.9-2-2v-9C203,18.9,203.9,18,205,18z"/>
	<path class="st0" d="M234,18h9c1.1,0,2,0.9,2,2v9c0,1.1-0.9,2-2,2h-9c-1.1,0-2-0.9-2-2v-9C232,18.9,232.9,18,234,18z"/>
</g>
</svg>
