<?xml version="1.0" encoding="utf-8"?>
<!-- Generator: Adobe Illustrator 23.0.2, SVG Export Plug-In . SVG Version: 6.00 Build 0)  -->
<svg version="1.1" id="Layer_1" xmlns="http://www.w3.org/2000/svg" xmlns:xlink="http://www.w3.org/1999/xlink" x="0px" y="0px"
	 viewBox="0 0 261 433" style="enable-background:new 0 0 261 433;" xml:space="preserve">
<style type="text/css">
	.st0{fill:#F8F8F8;}
	.st1{fill:#A9A6C8;}
</style>
<title>Artboard 5</title>
<g id="Layer_3">
	<path class="st0" d="M10,391h9c1.1,0,2,0.9,2,2v9c0,1.1-0.9,2-2,2h-9c-1.1,0-2-0.9-2-2v-9C8,391.9,8.9,391,10,391z"/>
	<path class="st0" d="M39,391h9c1.1,0,2,0.9,2,2v9c0,1.1-0.9,2-2,2h-9c-1.1,0-2-0.9-2-2v-9C37,391.9,37.9,391,39,391z"/>
	<path class="st0" d="M68,391h9c1.1,0,2,0.9,2,2v9c0,1.1-0.9,2-2,2h-9c-1.1,0-2-0.9-2-2v-9C66,391.9,66.9,391,68,391z"/>
	<path class="st0" d="M97,391h9c1.1,0,2,0.9,2,2v9c0,1.1-0.9,2-2,2h-9c-1.1,0-2-0.9-2-2v-9C95,391.9,95.9,391,97,391z"/>
	<path class="st0" d="M126,391h9c1.1,0,2,0.9,2,2v9c0,1.1-0.9,2-2,2h-9c-1.1,0-2-0.9-2-2v-9C124,391.9,124.9,391,126,391z"/>
	<path class="st0" d="M155,391h9c1.1,0,2,0.9,2,2v9c0,1.1-0.9,2-2,2h-9c-1.1,0-2-0.9-2-2v-9C153,391.9,153.9,391,155,391z"/>
	<path class="st0" d="M184,391h9c1.1,0,2,0.9,2,2v9c0,1.1-0.9,2-2,2h-9c-1.1,0-2-0.9-2-2v-9C182,391.9,182.9,391,184,391z"/>
	<path class="st0" d="M213,391h9c1.1,0,2,0.9,2,2v9c0,1.1-0.9,2-2,2h-9c-1.1,0-2-0.9-2-2v-9C211,391.9,211.9,391,213,391z"/>
	<path class="st0" d="M242,391h9c1.1,0,2,0.9,2,2v9c0,1.1-0.9,2-2,2h-9c-1.1,0-2-0.9-2-2v-9C240,391.9,240.9,391,242,391z"/>
	<path class="st1" d="M10,29h9c1.1,0,2,0.9,2,2v9c0,1.1-0.9,2-2,2h-9c-1.1,0-2-0.9-2-2v-9C8,29.9,8.9,29,10,29z"/>
	<path class="st1" d="M39,29h9c1.1,0,2,0.9,2,2v9c0,1.1-0.9,2-2,2h-9c-1.1,0-2-0.9-2-2v-9C37,29.9,37.9,29,39,29z"/>
	<path class="st1" d="M68,29h9c1.1,0,2,0.9,2,2v9c0,1.1-0.9,2-2,2h-9c-1.1,0-2-0.9-2-2v-9C66,29.9,66.9,29,68,29z"/>
	<path class="st1" d="M97,29h9c1.1,0,2,0.9,2,2v9c0,1.1-0.9,2-2,2h-9c-1.1,0-2-0.9-2-2v-9C95,29.9,95.9,29,97,29z"/>
	<path class="st1" d="M126,29h9c1.1,0,2,0.9,2,2v9c0,1.1-0.9,2-2,2h-9c-1.1,0-2-0.9-2-2v-9C124,29.9,124.9,29,126,29z"/>
	<path class="st1" d="M155,29h9c1.1,0,2,0.9,2,2v9c0,1.1-0.9,2-2,2h-9c-1.1,0-2-0.9-2-2v-9C153,29.9,153.9,29,155,29z"/>
	<path class="st1" d="M184,29h9c1.1,0,2,0.9,2,2v9c0,1.1-0.9,2-2,2h-9c-1.1,0-2-0.9-2-2v-9C182,29.9,182.9,29,184,29z"/>
	<path class="st1" d="M213,29h9c1.1,0,2,0.9,2,2v9c0,1.1-0.9,2-2,2h-9c-1.1,0-2-0.9-2-2v-9C211,29.9,211.9,29,213,29z"/>
	<path class="st1" d="M242,29h9c1.1,0,2,0.9,2,2v9c0,1.1-0.9,2-2,2h-9c-1.1,0-2-0.9-2-2v-9C240,29.9,240.9,29,242,29z"/>
</g>
</svg>
