<?xml version="1.0" encoding="utf-8"?>
<!-- Generator: Adobe Illustrator 19.2.1, SVG Export Plug-In . SVG Version: 6.00 Build 0)  -->
<svg version="1.1" id="Layer_1" xmlns="http://www.w3.org/2000/svg" xmlns:xlink="http://www.w3.org/1999/xlink" x="0px" y="0px"
	 width="240px" height="40px" viewBox="0 0 240 40" style="enable-background:new 0 0 240 40;" xml:space="preserve">
<style type="text/css">
	.st0{fill:#C9C7DC;}
</style>
<g>
	<path class="st0" d="M11,27.1H3.2c-1.8,0-3.2-1.4-3.2-3.2v-7.8c0-1.8,1.4-3.2,3.2-3.2H11c1.8,0,3.2,1.4,3.2,3.2v7.8
		C14.2,25.7,12.8,27.1,11,27.1z"/>
	<path class="st0" d="M160,23.9v-7.8c0-1.8,1.4-3.2,3.2-3.2h7.8c1.8,0,3.2,1.4,3.2,3.2v7.8c0,1.8-1.4,3.2-3.2,3.2h-7.8
		C161.4,27.1,160,25.7,160,23.9z"/>
	<path class="st0" d="M120,23.9v-7.8c0-1.8,1.4-3.2,3.2-3.2h7.8c1.8,0,3.2,1.4,3.2,3.2v7.8c0,1.8-1.4,3.2-3.2,3.2h-7.8
		C121.4,27.1,120,25.7,120,23.9z"/>
	<path class="st0" d="M200,23.9v-7.8c0-1.8,1.4-3.2,3.2-3.2h7.8c1.8,0,3.2,1.4,3.2,3.2v7.8c0,1.8-1.4,3.2-3.2,3.2h-7.8
		C201.4,27.1,200,25.7,200,23.9z"/>
	<path class="st0" d="M40,23.9v-7.8c0-1.8,1.4-3.2,3.2-3.2H51c1.8,0,3.2,1.4,3.2,3.2v7.8c0,1.8-1.4,3.2-3.2,3.2h-7.8
		C41.4,27.1,40,25.7,40,23.9z"/>
	<path class="st0" d="M80,23.9v-7.8c0-1.8,1.4-3.2,3.2-3.2H91c1.8,0,3.2,1.4,3.2,3.2v7.8c0,1.8-1.4,3.2-3.2,3.2h-7.8
		C81.3,27.1,80,25.7,80,23.9z"/>
</g>
</svg>
