<svg xmlns="http://www.w3.org/2000/svg" width="248.9" height="5" viewBox="0 0 248.9 5"><defs><style>.cls-1{fill:#190a77;}</style></defs><title>Artboard 5</title><g id="Layer_3" data-name="Layer 3"><path class="cls-1" d="M248.4,5a21.82,21.82,0,0,1-9.73-2A23.21,23.21,0,0,0,220,3a21.82,21.82,0,0,1-9.73,2,21.82,21.82,0,0,1-9.73-2,23.23,23.23,0,0,0-18.68,0,21.82,21.82,0,0,1-9.73,2,21.8,21.8,0,0,1-9.72-2,23.23,23.23,0,0,0-18.68,0A21.82,21.82,0,0,1,134,5a21.82,21.82,0,0,1-9.73-2,23.23,23.23,0,0,0-18.68,0,21.82,21.82,0,0,1-9.73,2,21.77,21.77,0,0,1-9.72-2A20.7,20.7,0,0,0,76.8,1a20.72,20.72,0,0,0-9.35,2,21.82,21.82,0,0,1-9.73,2A21.85,21.85,0,0,1,48,3a20.63,20.63,0,0,0-9.34-2,20.63,20.63,0,0,0-9.34,2,21.82,21.82,0,0,1-9.73,2A21.87,21.87,0,0,1,9.84,3,20.63,20.63,0,0,0,.5,1,.5.5,0,0,1,0,.5.5.5,0,0,1,.5,0a21.82,21.82,0,0,1,9.73,2,20.72,20.72,0,0,0,9.35,2,20.7,20.7,0,0,0,9.34-2,21.82,21.82,0,0,1,9.73-2,21.82,21.82,0,0,1,9.73,2,20.7,20.7,0,0,0,9.34,2,20.72,20.72,0,0,0,9.35-2A21.82,21.82,0,0,1,76.8,0a21.8,21.8,0,0,1,9.72,2,20.7,20.7,0,0,0,9.34,2,20.63,20.63,0,0,0,9.34-2,24.22,24.22,0,0,1,19.46,0A20.63,20.63,0,0,0,134,4a20.63,20.63,0,0,0,9.34-2,24.2,24.2,0,0,1,19.45,0,20.7,20.7,0,0,0,9.34,2,20.72,20.72,0,0,0,9.35-2,24.2,24.2,0,0,1,19.45,0,20.63,20.63,0,0,0,9.34,2,20.67,20.67,0,0,0,9.34-2,24.2,24.2,0,0,1,19.45,0,20.67,20.67,0,0,0,9.34,2,.5.5,0,0,1,0,1Z"/></g></svg>