<svg id="Layer_1" data-name="Layer 1" xmlns="http://www.w3.org/2000/svg" width="31.99" height="32" viewBox="0 0 31.99 32"><defs><style>.cls-1{fill:#a39fc4;}.cls-2{fill:#f8f8f8;}</style></defs><title>svg-source</title><ellipse class="cls-1" cx="16" cy="16" rx="16" ry="16"/><path class="cls-2" d="M16,6.72A7.23,7.23,0,0,0,8.77,14c0,4.64,5.21,10.44,6,11.32A1.58,1.58,0,0,0,16,26a1.58,1.58,0,0,0,1.2-.73c0.82-.89,6-6.68,6-11.32A7.23,7.23,0,0,0,16,6.72Zm0,12A4.82,4.82,0,1,1,20.82,14,4.82,4.82,0,0,1,16,18.77Zm0-7.23A2.41,2.41,0,1,0,18.41,14,2.41,2.41,0,0,0,16,11.54Z"/></svg>