<svg id="Layer_1" data-name="Layer 1" xmlns="http://www.w3.org/2000/svg" width="31.99" height="32" viewBox="0 0 31.99 32"><defs><style>.cls-1{fill:#a39fc4;}.cls-2{fill:#f8f8f8;}</style></defs><title>svg-source</title><ellipse class="cls-1" cx="16" cy="16" rx="16" ry="16"/><path class="cls-2" d="M15.69,17.75a12.45,12.45,0,0,1-2.63-3.15L12.72,14c0.12-.13,1-1.1,1.42-1.63a1,1,0,0,0-.22-1.26s-2-2-2.48-2.42a1,1,0,0,0-1-.18c-1,.63-2,1.17-2,3.79,0,2.45,1.86,5,3.87,6.93,2,2.21,4.78,4.42,7.45,4.42s3.16-1.06,3.79-2a1,1,0,0,0-.18-1c-0.4-.46-2.42-2.48-2.42-2.48a1,1,0,0,0-1.26-.22c-0.49.37-1.38,1.19-1.6,1.39A17.72,17.72,0,0,1,15.69,17.75Z"/></svg>