<?xml version="1.0" encoding="utf-8"?>
<!-- Generator: Adobe Illustrator 22.1.0, SVG Export Plug-In . SVG Version: 6.00 Build 0)  -->
<svg version="1.1" id="Layer_1" xmlns="http://www.w3.org/2000/svg" xmlns:xlink="http://www.w3.org/1999/xlink" x="0px" y="0px"
	 viewBox="0 0 130 100" width="130" height="100" style="enable-background:new 0 0 130 100;" xml:space="preserve">
<style type="text/css">
	.st0{fill:#190A77;}
	.st1{fill:url(#SVGID_1_);}
	.st2{fill:url(#SVGID_2_);}
	.st3{opacity:0.36;}
	.st4{fill:url(#SVGID_3_);}
	.st5{fill:url(#SVGID_4_);}
	.st6{fill:url(#SVGID_5_);}
	.st7{fill:url(#SVGID_6_);}
	.st8{fill:url(#SVGID_7_);}
	.st9{fill:url(#SVGID_8_);}
	.st10{opacity:0.4;}
	.st11{fill:#D02003;}
</style>
<title>svg-source</title>
<g>
	<g>
		<path class="st0" d="M113.3,82.5c-0.1,0.1-0.4,0.2-0.6,0.2s-0.4,0-0.5-0.1c-0.2-0.1-0.3-0.3-0.3-0.5c0-0.3,0.1-0.4,0.3-0.6
			c0.2-0.1,0.4-0.2,0.6-0.2c0.1,0,0.3,0,0.4,0v-0.1c0-0.1,0-0.2-0.1-0.2c-0.1-0.1-0.2-0.1-0.4-0.1c-0.3,0-0.5,0.1-0.7,0.2v-0.6
			c0.2-0.1,0.5-0.2,0.8-0.2s0.6,0.1,0.8,0.2c0.2,0.1,0.3,0.3,0.3,0.6V82c0,0.1,0,0.2,0.1,0.2h0.1v0.5c-0.1,0-0.2,0.1-0.3,0.1
			C113.7,82.7,113.5,82.7,113.3,82.5L113.3,82.5z M113.2,81.8c-0.1,0-0.2,0-0.3,0c-0.2,0-0.4,0.1-0.4,0.2s0.1,0.2,0.3,0.2
			c0.1,0,0.2,0,0.3-0.1L113.2,81.8L113.2,81.8z"/>
		<path class="st0" d="M114.5,80.4h0.7v0.2l0,0c0.2-0.1,0.4-0.3,0.7-0.3c0.2,0,0.5,0.1,0.6,0.2s0.2,0.3,0.2,0.7v1.4H116v-1.3
			c0-0.2,0-0.3-0.1-0.3c-0.1-0.1-0.1-0.1-0.2-0.1c-0.2,0-0.4,0.1-0.5,0.2v1.5h-0.7C114.5,82.6,114.5,80.4,114.5,80.4z"/>
		<path class="st0" d="M118.3,80.3c0.7,0,1.3,0.5,1.3,1.2s-0.5,1.2-1.3,1.2c-0.7,0-1.3-0.5-1.3-1.2S117.6,80.3,118.3,80.3z
			 M118.3,82.1c0.3,0,0.6-0.3,0.6-0.6c0-0.3-0.2-0.6-0.6-0.6c-0.3,0-0.6,0.3-0.6,0.6C117.7,81.9,118,82.1,118.3,82.1z"/>
		<path class="st0" d="M119.9,81.9c0.3,0.2,0.7,0.3,0.9,0.3c0.2,0,0.3-0.1,0.3-0.2c0-0.2-0.3-0.2-0.6-0.2c-0.4-0.1-0.7-0.3-0.7-0.7
			c0-0.5,0.4-0.8,1-0.8c0.3,0,0.6,0.1,0.9,0.2v0.6c-0.3-0.2-0.7-0.2-0.9-0.2c-0.2,0-0.3,0.1-0.3,0.2c0,0.2,0.2,0.2,0.6,0.2
			c0.4,0.1,0.7,0.3,0.7,0.7c0,0.5-0.4,0.8-1,0.8c-0.3,0-0.6-0.1-0.9-0.2V81.9z"/>
		<g>
			<g>

					<linearGradient id="SVGID_1_" gradientUnits="userSpaceOnUse" x1="102.2117" y1="46.7516" x2="102.2117" y2="42.3347" gradientTransform="matrix(1 0 0 -1 0 100.5512)">
					<stop  offset="0" style="stop-color:#B1F2F2"/>
					<stop  offset="0.5382" style="stop-color:#AFBEC5"/>
					<stop  offset="1" style="stop-color:#8393A2"/>
				</linearGradient>
				<path class="st1" d="M99.7,79.6c2.8-3.1,4.8-4.3,4.9-6.1c0.2-1.9-1.3-3-3.6-3c-1.2,0-2.4,0.4-3.7,1.1c-0.9,0.5-2-0.2-1.9-1.2
					l0.5-0.7c0-0.4,0.8-0.6,1.1-0.8c1.6-0.9,2.4-2.9,5-2.9c5.1,0,8.8,2.8,8.5,7.1c-0.2,2.6-2.3,4.4-5.3,7.6l-4,3.9v0.1h8.1
					c0.6,0,1.1,0.5,1.1,1.1l-0.2,2.3c0,0.6-0.5,1-1.1,1H96.3c-2.1,0-3.2-2.6-1.7-4.1L99.7,79.6z"/>

					<linearGradient id="SVGID_2_" gradientUnits="userSpaceOnUse" x1="121.0009" y1="44.099" x2="121.0009" y2="35.9367" gradientTransform="matrix(1 0 0 -1 0 100.5512)">
					<stop  offset="0" style="stop-color:#B1F2F2"/>
					<stop  offset="0.5382" style="stop-color:#AFBEC5"/>
					<stop  offset="1" style="stop-color:#8393A2"/>
				</linearGradient>
				<path class="st2" d="M112.6,84.9c0-0.7,0.7-1.1,1.3-0.8c1.7,0.6,3.5,1,5.1,1c2.9,0,4.8-1.2,4.8-3c-0.1-2.7-3.3-3.9-7.6-3.9
					c-0.1,0-0.2,0-0.3,0c-1.4,0-2.6-1.3-2.6-2.7l0.4-5.9c0.1-1.9,1.6-3.2,3.5-3.2h9.2c0.9,0,1.6,0.8,1.6,1.7l-0.1,1.6
					c0,0.7-0.6,1.2-1.3,1.2h-7.2l-0.3,3.5c4.8,0.1,10.3,1.8,10.4,7.6c0.1,4.5-4.1,7.6-10,7.6c-2.3,0-4.6-0.4-6.2-1
					c-0.5-0.2-0.8-0.7-0.8-1.2L112.6,84.9z"/>
			</g>
			<g class="st3">

					<linearGradient id="SVGID_3_" gradientUnits="userSpaceOnUse" x1="102.2117" y1="19.2956" x2="102.2117" y2="35.9944" gradientTransform="matrix(1 0 0 -1 0 100.5512)">
					<stop  offset="1.322115e-03" style="stop-color:#000000;stop-opacity:0"/>
					<stop  offset="1" style="stop-color:#000000;stop-opacity:0.97"/>
				</linearGradient>
				<path class="st4" d="M99.7,79.6c2.8-3.1,4.8-4.3,4.9-6.1c0.2-1.9-1.3-3-3.6-3c-1.2,0-2.4,0.4-3.7,1.1c-0.9,0.5-2-0.2-1.9-1.2
					l0.5-0.7c0-0.4,0.8-0.6,1.1-0.8c1.6-0.9,2.4-2.9,5-2.9c5.1,0,8.8,2.8,8.5,7.1c-0.2,2.6-2.3,4.4-5.3,7.6l-4,3.9v0.1h8.1
					c0.6,0,1.1,0.5,1.1,1.1l-0.2,2.3c0,0.6-0.5,1-1.1,1H96.3c-2.1,0-3.2-2.6-1.7-4.1L99.7,79.6z"/>

					<linearGradient id="SVGID_4_" gradientUnits="userSpaceOnUse" x1="121.0009" y1="19.2956" x2="121.0009" y2="35.9944" gradientTransform="matrix(1 0 0 -1 0 100.5512)">
					<stop  offset="1.322115e-03" style="stop-color:#000000;stop-opacity:0"/>
					<stop  offset="1" style="stop-color:#000000;stop-opacity:0.97"/>
				</linearGradient>
				<path class="st5" d="M112.6,84.9c0-0.7,0.7-1.1,1.3-0.8c1.7,0.6,3.5,1,5.1,1c2.9,0,4.8-1.2,4.8-3c-0.1-2.7-3.3-3.9-7.6-3.9
					c-0.1,0-0.2,0-0.3,0c-1.4,0-2.6-1.3-2.6-2.7l0.4-5.9c0.1-1.9,1.6-3.2,3.5-3.2h9.2c0.9,0,1.6,0.8,1.6,1.7l-0.1,1.6
					c0,0.7-0.6,1.2-1.3,1.2h-7.2l-0.3,3.5c4.8,0.1,10.3,1.8,10.4,7.6c0.1,4.5-4.1,7.6-10,7.6c-2.3,0-4.6-0.4-6.2-1
					c-0.5-0.2-0.8-0.7-0.8-1.2L112.6,84.9z"/>
			</g>
			<g>

					<linearGradient id="SVGID_5_" gradientUnits="userSpaceOnUse" x1="118.7939" y1="29.1007" x2="126.4118" y2="37.8749" gradientTransform="matrix(1 0 0 -1 0 100.5512)">
					<stop  offset="0" style="stop-color:#E8F2F2"/>
					<stop  offset="0.5382" style="stop-color:#AFBEC5"/>
					<stop  offset="1" style="stop-color:#8393A2"/>
				</linearGradient>
				<path class="st6" d="M117.5,70.8h1.8h0.1h7.1c0.7,0,1.3-0.5,1.3-1.2l0.1-1.6c0-0.9-0.7-1.7-1.6-1.7h-9.2c-1.9,0-3.3,1.4-3.5,3.2
					l-0.3,4.9C113.6,72.4,115.4,70.8,117.5,70.8z"/>

					<linearGradient id="SVGID_6_" gradientUnits="userSpaceOnUse" x1="123.4507" y1="19.6692" x2="117.5655" y2="11.1917" gradientTransform="matrix(1 0 0 -1 0 100.5512)">
					<stop  offset="0" style="stop-color:#E8F2F2"/>
					<stop  offset="0.5382" style="stop-color:#AFBEC5"/>
					<stop  offset="1" style="stop-color:#8393A2"/>
				</linearGradient>
				<path class="st7" d="M129.4,81.9c0-0.5-0.2-1.6-0.3-2c0.5,3.6-4.1,5.6-10.1,5.2l0,0l0,0c-1.6,0-3.4-0.3-5.1-1
					c-0.6-0.2-1.3,0.2-1.3,0.8l-0.1,2.4c0,0.5,0.3,1,0.8,1.2c1.6,0.6,3.9,1,6.2,1C125.3,89.5,129.6,86.4,129.4,81.9z"/>

					<linearGradient id="SVGID_7_" gradientUnits="userSpaceOnUse" x1="105.3485" y1="37.1928" x2="99.7904" y2="23.1946" gradientTransform="matrix(1 0 0 -1 0 100.5512)">
					<stop  offset="0" style="stop-color:#E8F2F2"/>
					<stop  offset="0.5382" style="stop-color:#AFBEC5"/>
					<stop  offset="1" style="stop-color:#8393A2"/>
				</linearGradient>
				<path class="st8" d="M110.4,71.3c-0.6-3.3-4.5-5.5-8.3-5.5c-3.9,0-7.4,3.3-8.1,5.5c-0.7,2.1,2.4,2.5,8-0.4
					C107.9,67.9,110.2,70.7,110.4,71.3z"/>

					<linearGradient id="SVGID_8_" gradientUnits="userSpaceOnUse" x1="96.5339" y1="18.0099" x2="107.2806" y2="10.3241" gradientTransform="matrix(1 0 0 -1 0 100.5512)">
					<stop  offset="0" style="stop-color:#E8F2F2"/>
					<stop  offset="0.5382" style="stop-color:#AFBEC5"/>
					<stop  offset="1" style="stop-color:#8393A2"/>
				</linearGradient>
				<path class="st9" d="M98.8,84.7c-1.4,0-2.1-1.5-1.5-2.6L94.6,85c-1.5,1.5-0.4,4.1,1.7,4.1h12.8c0.6,0,1-0.4,1.1-1l0.2-2.3
					c0.1-0.6-0.4-1.1-1.1-1.1h-6.6h-1.5H98.8z"/>
			</g>
		</g>
	</g>
</g>
<g>
	<g class="st10">
		<path class="st11" d="M88.8,74.2c-13.5,24.3-44.2,33-68.5,19.5c-8.2-4.6-15-11.4-19.5-19.6c-5.1-9.4,16.4-12.8,43.5,1.1
			C73.3,90.1,88.3,74.9,88.8,74.2z"/>
	</g>
	<path class="st11" d="M0.8,74.2c13.5,24.3,44.2,33,68.5,19.5c8.2-4.6,15-11.4,19.5-19.6c5.1-9.4-16.4-12.8-43.6,1.1
		C16.3,90.1,1.3,74.9,0.8,74.2z"/>
	<g class="st10">
		<path class="st0" d="M0.8,25.8C14.4,1.6,45-7.2,69.3,6.4c8.2,4.6,15,11.4,19.5,19.6c5.1,9.4-16.4,12.8-43.6-1.1
			C16.3,9.9,1.3,25.2,0.8,25.8z"/>
	</g>
	<path class="st0" d="M88.8,25.8C75.2,1.6,44.6-7.2,20.3,6.4C12.1,10.9,5.3,17.7,0.8,26c-5.1,9.4,16.4,12.8,43.5-1.1
		C73.3,9.9,88.3,25.2,88.8,25.8z"/>
</g>
</svg>
