<svg id="Layer_1" data-name="Layer 1" xmlns="http://www.w3.org/2000/svg" width="130" height="100" viewBox="0 0 130 100"><defs><style>.cls-1{fill:#190a77;}.cls-2{fill:#d02003;}</style></defs><title>svg-source</title><path class="cls-1" d="M18.35,52.23a11.28,11.28,0,0,0,5.21,1.53c1.13,0,1.8-.3,1.8-1,0-1-1.48-.91-3.46-1.42-2.5-.62-4-1.66-4-3.84,0-2.79,2.5-4.38,5.77-4.38a12.33,12.33,0,0,1,5,1v3.52a11.13,11.13,0,0,0-5-1.42c-1.07,0-1.72.32-1.72,0.94,0,1,1.42.89,3.38,1.37,2.52,0.62,4.05,1.58,4.05,3.87,0,2.9-2.55,4.48-5.93,4.48a12.54,12.54,0,0,1-5.21-1.1V52.23Z"/><path class="cls-1" d="M31.31,43.4h4.08V56.61H31.31V43.4Z"/><path class="cls-2" d="M33.35,36.88A2.34,2.34,0,1,1,31,39.21,2.36,2.36,0,0,1,33.35,36.88Z"/><path class="cls-1" d="M38.1,43.4h4v1.21l0.05,0a6.47,6.47,0,0,1,4.08-1.53,4.76,4.76,0,0,1,3.46,1.34c0.81,0.86,1.15,2,1.15,3.92v8.24H46.8V49a2.61,2.61,0,0,0-.46-1.85,1.75,1.75,0,0,0-1.4-.56,4.71,4.71,0,0,0-2.77,1.1v8.88H38.1V43.4Z"/><path class="cls-1" d="M62.1,56.18a6.08,6.08,0,0,1-3,.72,4.66,4.66,0,0,1-3.44-1.32c-0.7-.75-1.15-1.85-1.15-3.95V46.78H52.38V43.4h2.15V40l4.08-.7V43.4H62.1v3.38H58.61v4.43c0,1.29.3,2.25,1.53,2.25a4.73,4.73,0,0,0,2-.54v3.25Z"/><path class="cls-1" d="M72.06,55.8a6.43,6.43,0,0,1-3.68,1.1A5.37,5.37,0,0,1,65.32,56,3.6,3.6,0,0,1,63.76,53a3.76,3.76,0,0,1,1.61-3.19,6.52,6.52,0,0,1,3.7-.94,10.67,10.67,0,0,1,2.28.24V48.55a1.86,1.86,0,0,0-.51-1.4,3,3,0,0,0-2-.56,8.24,8.24,0,0,0-3.87,1V44.13a10.5,10.5,0,0,1,4.62-1A7,7,0,0,1,74,44.37,4.37,4.37,0,0,1,75.44,48V52.5a0.86,0.86,0,0,0,.81,1,1.53,1.53,0,0,0,.67-0.16v3.06a4.44,4.44,0,0,1-2,.4,3.87,3.87,0,0,1-2.85-1H72.06Zm-0.7-4.38a5.36,5.36,0,0,0-1.45-.19c-1,0-2.09.32-2.09,1.34a1.45,1.45,0,0,0,1.69,1.32,3.66,3.66,0,0,0,1.85-.54V51.43Z"/><path class="cls-1" d="M79.44,58a8.38,8.38,0,0,0,4.27,1.34c2,0,3.22-1,3.22-3V55.61l-0.05,0a5.56,5.56,0,0,1-3.09.89A6.17,6.17,0,0,1,77.64,50a6.66,6.66,0,0,1,6.87-6.9,7.48,7.48,0,0,1,3.3.75L91,43.29v13c0,4.16-2.85,6.47-7.06,6.47a10.76,10.76,0,0,1-4.51-1V58Zm7.49-10.93a4.64,4.64,0,0,0-2-.48,3,3,0,0,0-3.14,3.27,3,3,0,0,0,3.09,3.3,4.1,4.1,0,0,0,2.07-.56V47.05Z"/><path class="cls-1" d="M110.84,49a2.4,2.4,0,0,0-.48-1.8,1.82,1.82,0,0,0-1.4-.56,4.15,4.15,0,0,0-2.6,1.1,4.25,4.25,0,0,1,0,.59v8.29H102.3V49a2.48,2.48,0,0,0-.48-1.8,1.82,1.82,0,0,0-1.4-.56,4.29,4.29,0,0,0-2.58,1.07v8.91H93.77V43.4h4v1.18l0.05,0a6.12,6.12,0,0,1,4-1.5A4.43,4.43,0,0,1,105.66,45a6.87,6.87,0,0,1,4.64-1.88,4.61,4.61,0,0,1,3.41,1.32,5.17,5.17,0,0,1,1.21,3.89v8.29h-4.08V49Z"/><path class="cls-1" d="M125,55.8a6.43,6.43,0,0,1-3.68,1.1,5.37,5.37,0,0,1-3.06-.86A3.6,3.6,0,0,1,116.72,53a3.76,3.76,0,0,1,1.61-3.19,6.52,6.52,0,0,1,3.71-.94,10.65,10.65,0,0,1,2.28.24V48.55a1.86,1.86,0,0,0-.51-1.4,3,3,0,0,0-2-.56,8.25,8.25,0,0,0-3.87,1V44.13a10.51,10.51,0,0,1,4.62-1,7,7,0,0,1,4.4,1.26A4.37,4.37,0,0,1,128.39,48V52.5a0.86,0.86,0,0,0,.8,1,1.53,1.53,0,0,0,.67-0.16v3.06a4.44,4.44,0,0,1-2,.4,3.87,3.87,0,0,1-2.85-1H125Zm-0.7-4.38a5.36,5.36,0,0,0-1.45-.19c-1,0-2.09.32-2.09,1.34a1.45,1.45,0,0,0,1.69,1.32,3.66,3.66,0,0,0,1.85-.54V51.43Z"/></svg>