<?xml version="1.0" encoding="utf-8"?>
<!-- Generator: Adobe Illustrator 23.0.1, SVG Export Plug-In . SVG Version: 6.00 Build 0)  -->
<svg version="1.1" id="Layer_1" xmlns="http://www.w3.org/2000/svg" xmlns:xlink="http://www.w3.org/1999/xlink" x="0px" y="0px"
	 width="140px" height="100px" viewBox="0 0 140 100" style="enable-background:new 0 0 140 100;" xml:space="preserve">
<style type="text/css">
	.st0{fill:#190A77;}
	.st1{fill:#D02003;}
</style>
<title>svg-source</title>
<g>
	<path class="st0" d="M18.3,52.2c1.8,1.1,3.9,1.5,5.2,1.5c1.1,0,1.8-0.3,1.8-1c0-1-1.5-0.9-3.5-1.4c-2.5-0.6-4-1.7-4-3.8
		c0-2.8,2.5-4.4,5.8-4.4c1.6,0,3.5,0.3,5,1v3.5c-1.7-1-3.8-1.4-5-1.4c-1.1,0-1.7,0.3-1.7,0.9c0,1,1.4,0.9,3.4,1.4
		c2.5,0.6,4,1.6,4,3.9c0,2.9-2.5,4.5-5.9,4.5c-1.6,0-3.6-0.3-5.2-1.1V52.2z"/>
	<rect x="31.3" y="43.4" class="st0" width="4.1" height="13.2"/>
	<path class="st1" d="M33.3,36.9c1.3,0,2.4,1,2.4,2.3s-1.1,2.3-2.4,2.3c-1.3,0-2.4-1-2.4-2.3S32,36.9,33.3,36.9"/>
	<path class="st0" d="M38,43.4h4v1.2l0.1,0c1-0.8,2.4-1.5,4.1-1.5c1.4,0,2.6,0.5,3.5,1.3c0.8,0.9,1.2,2,1.2,3.9v8.2h-4.1V49
		c0-1-0.1-1.5-0.5-1.8c-0.3-0.4-0.8-0.6-1.4-0.6c-1,0-2,0.5-2.8,1.1v8.9H38V43.4z"/>
	<path class="st0" d="M62,56.1c-0.6,0.4-1.8,0.7-3,0.7c-1.3,0-2.6-0.4-3.4-1.3c-0.7-0.7-1.2-1.8-1.2-3.9v-4.8h-2.1v-3.4h2.1V40
		l4.1-0.7v4.1H62v3.4h-3.5v4.4c0,1.3,0.3,2.3,1.5,2.3c0.7,0,1.4-0.3,2-0.5V56.1z"/>
	<path class="st0" d="M71.9,55.8c-0.9,0.6-2.2,1.1-3.7,1.1c-1.1,0-2.2-0.3-3.1-0.9c-1-0.7-1.6-1.7-1.6-3.1c0-1.4,0.7-2.5,1.6-3.2
		c1-0.7,2.3-0.9,3.7-0.9c0.8,0,1.6,0.1,2.3,0.2v-0.5c0-0.6-0.2-1.1-0.5-1.4c-0.4-0.3-1.1-0.6-2-0.6c-1.5,0-2.8,0.5-3.9,1v-3.5
		c1.1-0.5,2.7-1,4.6-1c1.8,0,3.3,0.4,4.4,1.3c1,0.8,1.5,2,1.5,3.6v4.5c0,0.6,0.2,1,0.8,1c0.2,0,0.5-0.1,0.7-0.2v3.1
		c-0.5,0.2-1.2,0.4-2,0.4C73.8,56.8,72.7,56.5,71.9,55.8L71.9,55.8z M71.2,51.4c-0.4-0.1-1-0.2-1.4-0.2c-1,0-2.1,0.3-2.1,1.3
		c0,0.9,0.7,1.3,1.7,1.3c0.7,0,1.4-0.2,1.8-0.5V51.4z"/>
	<path class="st0" d="M79.3,57.9c1.3,0.8,2.9,1.3,4.3,1.3c2,0,3.2-1,3.2-3v-0.7l-0.1,0c-0.8,0.6-2,0.9-3.1,0.9
		c-3.2,0-6.1-2.5-6.1-6.5c0-3.9,2.8-6.9,6.9-6.9c1.3,0,2.4,0.3,3.3,0.8l3.2-0.6v13c0,4.2-2.8,6.5-7,6.5c-1.7,0-3.3-0.4-4.5-1V57.9z
		 M86.8,47c-0.5-0.3-1.3-0.5-2-0.5c-2.1,0-3.1,1.6-3.1,3.3c0,1.9,1.2,3.3,3.1,3.3c0.7,0,1.5-0.2,2.1-0.6V47z"/>
	<path class="st0" d="M110.6,49c0-1-0.2-1.4-0.5-1.8c-0.4-0.4-0.9-0.6-1.4-0.6c-0.9,0-1.9,0.5-2.6,1.1c0,0.2,0,0.4,0,0.6v8.3h-4.1
		V49c0-0.9-0.1-1.4-0.5-1.8c-0.4-0.4-0.9-0.6-1.4-0.6c-0.9,0-1.9,0.5-2.6,1.1v8.9h-4.1V43.4h4v1.2l0.1,0c1-0.9,2.4-1.5,4-1.5
		c1.4,0,3.1,0.6,3.8,1.9c1.4-1.3,3-1.9,4.6-1.9c1.5,0,2.6,0.5,3.4,1.3c0.8,0.9,1.2,2,1.2,3.9v8.3h-4.1V49z"/>
	<path class="st0" d="M124.8,55.8c-0.9,0.6-2.2,1.1-3.7,1.1c-1.1,0-2.2-0.3-3.1-0.9c-1-0.7-1.6-1.7-1.6-3.1c0-1.4,0.7-2.5,1.6-3.2
		c1-0.7,2.3-0.9,3.7-0.9c0.8,0,1.6,0.1,2.3,0.2v-0.5c0-0.6-0.2-1.1-0.5-1.4c-0.4-0.3-1.1-0.6-2-0.6c-1.5,0-2.8,0.5-3.9,1v-3.5
		c1.1-0.5,2.7-1,4.6-1c1.8,0,3.3,0.4,4.4,1.3c1,0.8,1.5,2,1.5,3.6v4.5c0,0.6,0.2,1,0.8,1c0.2,0,0.5-0.1,0.7-0.2v3.1
		c-0.5,0.2-1.2,0.4-2,0.4C126.6,56.8,125.6,56.5,124.8,55.8L124.8,55.8z M124.1,51.4c-0.4-0.1-1-0.2-1.4-0.2c-1,0-2.1,0.3-2.1,1.3
		c0,0.9,0.8,1.3,1.7,1.3c0.7,0,1.4-0.2,1.8-0.5V51.4z"/>
	<path class="st0" d="M130.3,47c0-2,1.5-3.5,3.5-3.5c2,0,3.5,1.5,3.5,3.5s-1.5,3.5-3.5,3.5C131.8,50.5,130.3,49,130.3,47 M136.6,47
		c0-1.6-1.1-2.8-2.8-2.8c-1.7,0-2.8,1.2-2.8,2.8c0,1.6,1.1,2.8,2.8,2.8C135.5,49.8,136.6,48.6,136.6,47 M133.7,47.6h-0.4v1.3h-0.9
		v-3.8h1.5c0.8,0,1.5,0.4,1.5,1.2c0,0.5-0.3,0.9-0.7,1.1l0.9,1.5h-1.1L133.7,47.6z M133.8,46.9c0.4,0,0.6-0.1,0.6-0.5
		c0-0.3-0.2-0.5-0.6-0.5h-0.4v1H133.8z"/>
</g>
</svg>
