<svg id="Layer_1" data-name="Layer 1" xmlns="http://www.w3.org/2000/svg" width="130" height="100" viewBox="0 0 130 100">
    <defs>
        <style>
            .cls-1 {
                opacity: 0.4;
            }

            .cls-2 {
                fill: #d02003;
            }

            .cls-3 {
                fill: #190a77;
            }
        </style>
    </defs>
    <title>svg-source</title>
    <g class="cls-1">
        <path class="cls-2" d="M88.89,74.19a50.33,50.33,0,0,1-88-.11c-5.11-9.42,16.39-12.83,43.55,1.13C73.44,90.11,88.39,74.82,88.89,74.19Z" />
    </g>
    <path class="cls-2" d="M0.94,74.19a50.33,50.33,0,0,0,88-.11C94,64.66,72.52,61.25,45.36,75.21,16.39,90.11,1.44,74.82.94,74.19Z" />
    <g class="cls-1">
        <path class="cls-3" d="M0.94,25.81a50.33,50.33,0,0,1,88,.11C94,35.34,72.52,38.75,45.36,24.79,16.39,9.89,1.44,25.18.94,25.81Z" />
    </g>
    <path class="cls-3" d="M88.85,25.81a50.33,50.33,0,0,0-88,.11c-5.11,9.42,16.39,12.83,43.55-1.13C73.41,9.89,88.35,25.18,88.85,25.81Z" />
</svg>
