<?xml version="1.0" encoding="utf-8"?>
<!-- Generator: Adobe Illustrator 23.0.1, SVG Export Plug-In . SVG Version: 6.00 Build 0)  -->
<svg version="1.1" id="Layer_1" xmlns="http://www.w3.org/2000/svg" xmlns:xlink="http://www.w3.org/1999/xlink" x="0px" y="0px"
	 width="140px" height="100px" viewBox="0 0 140 100" style="enable-background:new 0 0 140 100;" xml:space="preserve">
<style type="text/css">
	.st0{opacity:0.4;}
	.st1{fill:#D02003;}
	.st2{fill:#190A77;}
</style>
<title>svg-source</title>
<g class="st0">
	<path class="st1" d="M88.9,74.2c-13.5,24.3-44.2,33-68.5,19.5c-8.2-4.6-15-11.4-19.5-19.6c-5.1-9.4,16.4-12.8,43.5,1.1
		C73.4,90.1,88.4,74.8,88.9,74.2z"/>
</g>
<path class="st1" d="M0.9,74.2c13.5,24.3,44.2,33,68.5,19.5c8.2-4.6,15-11.4,19.5-19.6c5.1-9.4-16.4-12.8-43.6,1.1
	C16.4,90.1,1.4,74.8,0.9,74.2z"/>
<g class="st0">
	<path class="st2" d="M0.9,25.8C14.5,1.5,45.1-7.2,69.4,6.3c8.2,4.6,15,11.4,19.5,19.6c5.1,9.4-16.4,12.8-43.6-1.1
		C16.4,9.9,1.4,25.2,0.9,25.8z"/>
</g>
<path class="st2" d="M88.8,25.8C75.3,1.5,44.7-7.2,20.4,6.3c-8.2,4.6-15,11.4-19.5,19.6c-5.1,9.4,16.4,12.8,43.5-1.1
	C73.4,9.9,88.3,25.2,88.8,25.8z"/>
</svg>
