<svg id="Layer_1" data-name="Layer 1" xmlns="http://www.w3.org/2000/svg" width="56" height="62" viewBox="0 0 56 62"><defs><style>.cls-1{opacity:0.4;}.cls-2{fill:#fff;}</style></defs><title>sintagma-logo-footer</title><g class="cls-1"><path class="cls-2" d="M55.25,46A31.18,31.18,0,0,1,.76,45.92c-3.16-5.84,10.15-8,27,.7C45.68,55.84,54.94,46.37,55.25,46Z"/></g><path class="cls-2" d="M0.77,46a31.18,31.18,0,0,0,54.49-.07c3.16-5.84-10.15-8-27,.7C10.34,55.84,1.08,46.37.77,46Z"/><g class="cls-1"><path class="cls-2" d="M0.77,16a31.18,31.18,0,0,1,54.49.07c3.16,5.84-10.15,8-27-.7C10.34,6.16,1.08,15.63.77,16Z"/></g><path class="cls-2" d="M55.23,16a31.18,31.18,0,0,0-54.49.07c-3.16,5.84,10.15,8,27-.7C45.66,6.16,54.92,15.63,55.23,16Z"/></svg>