<svg id="Layer_1" data-name="Layer 1" xmlns="http://www.w3.org/2000/svg" width="120" height="100" viewBox="0 0 120 100"><defs><style>.cls-1{fill:#fff;}</style></defs><title>hamburgers</title><path class="cls-1" d="M39.45,12.75l13.7,10.85C44,29,34.31,40.72,32.59,50.43a16.94,16.94,0,0,1,4.85-.57c9.42,0,16.84,7.42,16.84,18A19.43,19.43,0,0,1,34.88,87.25c-11.7,0-22-9.42-22-26C12.9,41.58,23.74,23.88,39.45,12.75Zm52.81,0L106,23.59C96.83,29,87.12,40.72,85.41,50.43a16.94,16.94,0,0,1,4.85-.57c9.42,0,16.85,7.42,16.85,18A19.43,19.43,0,0,1,87.69,87.25c-11.71,0-22-9.42-22-26C65.71,41.58,76.56,23.88,92.26,12.75Z"/></svg>